<svg xmlns="http://www.w3.org/2000/svg" xmlns:xlink="http://www.w3.org/1999/xlink" width="500" zoomAndPan="magnify" viewBox="0 0 375 374.999991" height="500" preserveAspectRatio="xMidYMid meet" version="1.2"><defs/><g id="bcf301958e"><g style="fill:#3d393b;fill-opacity:0.4;"><g transform="translate(11.217182, 193.965969)"><path style="stroke:none" d="M 4.359375 -13.9375 L 7.703125 -4.984375 L 10.90625 -13.9375 L 12.8125 -13.9375 L 14.84375 0 L 12.1875 0 L 11.109375 -8.421875 L 11.0625 -8.421875 L 7.984375 0.1875 L 7.078125 0.1875 L 4.109375 -8.421875 L 4.0625 -8.421875 L 2.859375 0 L 0.203125 0 L 2.484375 -13.9375 Z M 4.359375 -13.9375 "/></g></g><g style="fill:#3d393b;fill-opacity:0.4;"><g transform="translate(30.75537, 193.965969)"><path style="stroke:none" d="M 3.625 -13.578125 L 3.625 0 L 0.96875 0 L 0.96875 -13.578125 Z M 3.625 -13.578125 "/></g></g><g style="fill:#3d393b;fill-opacity:0.4;"><g transform="translate(39.824354, 193.965969)"><path style="stroke:none" d="M 10.046875 -9.96875 C 9.671875 -10.425781 9.21875 -10.78125 8.6875 -11.03125 C 8.15625 -11.28125 7.613281 -11.40625 7.0625 -11.40625 C 5.90625 -11.40625 4.945312 -10.945312 4.1875 -10.03125 C 3.4375 -9.125 3.0625 -8.023438 3.0625 -6.734375 C 3.0625 -5.460938 3.441406 -4.378906 4.203125 -3.484375 C 4.972656 -2.597656 5.914062 -2.15625 7.03125 -2.15625 C 7.613281 -2.15625 8.164062 -2.289062 8.6875 -2.5625 C 9.21875 -2.832031 9.671875 -3.175781 10.046875 -3.59375 L 10.046875 -0.453125 C 9.535156 -0.210938 9.03125 -0.0195312 8.53125 0.125 C 8.039062 0.28125 7.519531 0.359375 6.96875 0.359375 C 5.769531 0.359375 4.664062 0.0546875 3.65625 -0.546875 C 2.65625 -1.160156 1.847656 -2.019531 1.234375 -3.125 C 0.628906 -4.226562 0.328125 -5.410156 0.328125 -6.671875 C 0.328125 -7.992188 0.617188 -9.21875 1.203125 -10.34375 C 1.796875 -11.46875 2.601562 -12.347656 3.625 -12.984375 C 4.65625 -13.617188 5.785156 -13.9375 7.015625 -13.9375 C 7.554688 -13.9375 8.082031 -13.863281 8.59375 -13.71875 C 9.101562 -13.582031 9.585938 -13.390625 10.046875 -13.140625 Z M 10.046875 -9.96875 "/></g></g><g style="fill:#3d393b;fill-opacity:0.4;"><g transform="translate(55.135289, 193.965969)"><path style="stroke:none" d="M 3.625 -13.578125 L 3.625 -8.21875 L 8.515625 -8.21875 L 8.515625 -13.578125 L 11.15625 -13.578125 L 11.15625 0 L 8.515625 0 L 8.515625 -6.0625 L 3.625 -6.0625 L 3.625 0 L 0.96875 0 L 0.96875 -13.578125 Z M 3.625 -13.578125 "/></g></g><g style="fill:#3d393b;fill-opacity:0.4;"><g transform="translate(71.759376, 193.965969)"><path style="stroke:none" d="M 7.1875 -13.9375 L 12.328125 0 L 9.5 0 L 8.453125 -2.859375 L 3.75 -2.859375 L 2.625 0 L -0.15625 0 L 5.125 -13.9375 Z M 4.5 -5.015625 L 7.71875 -5.015625 L 6.03125 -9.953125 L 6 -9.953125 Z M 4.5 -5.015625 "/></g></g><g style="fill:#3d393b;fill-opacity:0.4;"><g transform="translate(88.419432, 193.965969)"><path style="stroke:none" d="M 7.984375 -13.578125 L 7.984375 -11.265625 L 3.625 -11.265625 L 3.625 -8.28125 L 7.828125 -8.28125 L 7.828125 -5.96875 L 3.625 -5.96875 L 3.625 -2.296875 L 7.984375 -2.296875 L 7.984375 0 L 0.96875 0 L 0.96875 -13.578125 Z M 7.984375 -13.578125 "/></g></g><g style="fill:#3d393b;fill-opacity:0.4;"><g transform="translate(101.697691, 193.965969)"><path style="stroke:none" d="M 3.625 -13.578125 L 3.625 -2.296875 L 7.359375 -2.296875 L 7.359375 0 L 0.96875 0 L 0.96875 -13.578125 Z M 3.625 -13.578125 "/></g></g><g style="fill:#3d393b;fill-opacity:0.4;"><g transform="translate(113.428948, 193.965969)"><path style="stroke:none" d=""/></g></g><g style="fill:#3d393b;fill-opacity:0.4;"><g transform="translate(123.127529, 193.965969)"><path style="stroke:none" d="M 7.359375 -10.578125 C 7.109375 -10.929688 6.816406 -11.207031 6.484375 -11.40625 C 6.160156 -11.601562 5.773438 -11.703125 5.328125 -11.703125 C 4.867188 -11.703125 4.476562 -11.550781 4.15625 -11.25 C 3.832031 -10.945312 3.671875 -10.585938 3.671875 -10.171875 C 3.671875 -9.785156 3.828125 -9.457031 4.140625 -9.1875 C 4.460938 -8.914062 4.9375 -8.660156 5.5625 -8.421875 C 6.644531 -7.984375 7.410156 -7.554688 7.859375 -7.140625 C 8.304688 -6.734375 8.613281 -6.296875 8.78125 -5.828125 C 8.957031 -5.359375 9.046875 -4.84375 9.046875 -4.28125 C 9.046875 -2.90625 8.640625 -1.785156 7.828125 -0.921875 C 7.015625 -0.0664062 5.9375 0.359375 4.59375 0.359375 C 3.65625 0.359375 2.835938 0.117188 2.140625 -0.359375 C 1.453125 -0.847656 0.875 -1.488281 0.40625 -2.28125 L 2.125 -3.953125 C 2.332031 -3.378906 2.660156 -2.90625 3.109375 -2.53125 C 3.566406 -2.164062 4.054688 -1.984375 4.578125 -1.984375 C 5.078125 -1.984375 5.488281 -2.164062 5.8125 -2.53125 C 6.144531 -2.894531 6.3125 -3.363281 6.3125 -3.9375 C 6.3125 -4.445312 6.15625 -4.847656 5.84375 -5.140625 C 5.53125 -5.441406 5.070312 -5.710938 4.46875 -5.953125 C 3.113281 -6.472656 2.1875 -7.019531 1.6875 -7.59375 C 1.1875 -8.164062 0.9375 -8.921875 0.9375 -9.859375 C 0.9375 -10.578125 1.101562 -11.25 1.4375 -11.875 C 1.769531 -12.5 2.242188 -13 2.859375 -13.375 C 3.472656 -13.75 4.148438 -13.9375 4.890625 -13.9375 C 5.554688 -13.9375 6.25 -13.785156 6.96875 -13.484375 C 7.695312 -13.179688 8.242188 -12.828125 8.609375 -12.421875 Z M 7.359375 -10.578125 "/></g></g><g style="fill:#3d393b;fill-opacity:0.4;"><g transform="translate(137.089343, 193.965969)"><path style="stroke:none" d="M 8.125 -13.578125 L 8.125 -11.265625 L 5.375 -11.265625 L 5.375 0 L 2.734375 0 L 2.734375 -11.265625 L 0 -11.265625 L 0 -13.578125 Z M 8.125 -13.578125 "/></g></g><g style="fill:#3d393b;fill-opacity:0.4;"><g transform="translate(149.702036, 193.965969)"><path style="stroke:none" d="M 7.984375 -13.578125 L 7.984375 -11.265625 L 3.625 -11.265625 L 3.625 -8.28125 L 7.828125 -8.28125 L 7.828125 -5.96875 L 3.625 -5.96875 L 3.625 -2.296875 L 7.984375 -2.296875 L 7.984375 0 L 0.96875 0 L 0.96875 -13.578125 Z M 7.984375 -13.578125 "/></g></g><g style="fill:#3d393b;fill-opacity:0.4;"><g transform="translate(162.980295, 193.965969)"><path style="stroke:none" d="M 2.59375 -13.578125 L 5.84375 -4.421875 L 5.890625 -4.421875 L 8.90625 -13.578125 L 11.75 -13.578125 L 6.484375 0.359375 L 4.9375 0.359375 L -0.25 -13.578125 Z M 2.59375 -13.578125 "/></g></g><g style="fill:#3d393b;fill-opacity:0.4;"><g transform="translate(178.974785, 193.965969)"><path style="stroke:none" d="M 7.984375 -13.578125 L 7.984375 -11.265625 L 3.625 -11.265625 L 3.625 -8.28125 L 7.828125 -8.28125 L 7.828125 -5.96875 L 3.625 -5.96875 L 3.625 -2.296875 L 7.984375 -2.296875 L 7.984375 0 L 0.96875 0 L 0.96875 -13.578125 Z M 7.984375 -13.578125 "/></g></g><g style="fill:#3d393b;fill-opacity:0.4;"><g transform="translate(192.253044, 193.965969)"><path style="stroke:none" d="M 2.875 -13.9375 L 10.03125 -4.453125 L 10.0625 -4.453125 L 10.0625 -13.578125 L 12.703125 -13.578125 L 12.703125 0.265625 L 10.796875 0.265625 L 3.65625 -9.21875 L 3.625 -9.21875 L 3.625 0 L 0.96875 0 L 0.96875 -13.9375 Z M 2.875 -13.9375 "/></g></g><g style="fill:#3d393b;fill-opacity:0.4;"><g transform="translate(210.406119, 193.965969)"><path style="stroke:none" d="M 7.359375 -10.578125 C 7.109375 -10.929688 6.816406 -11.207031 6.484375 -11.40625 C 6.160156 -11.601562 5.773438 -11.703125 5.328125 -11.703125 C 4.867188 -11.703125 4.476562 -11.550781 4.15625 -11.25 C 3.832031 -10.945312 3.671875 -10.585938 3.671875 -10.171875 C 3.671875 -9.785156 3.828125 -9.457031 4.140625 -9.1875 C 4.460938 -8.914062 4.9375 -8.660156 5.5625 -8.421875 C 6.644531 -7.984375 7.410156 -7.554688 7.859375 -7.140625 C 8.304688 -6.734375 8.613281 -6.296875 8.78125 -5.828125 C 8.957031 -5.359375 9.046875 -4.84375 9.046875 -4.28125 C 9.046875 -2.90625 8.640625 -1.785156 7.828125 -0.921875 C 7.015625 -0.0664062 5.9375 0.359375 4.59375 0.359375 C 3.65625 0.359375 2.835938 0.117188 2.140625 -0.359375 C 1.453125 -0.847656 0.875 -1.488281 0.40625 -2.28125 L 2.125 -3.953125 C 2.332031 -3.378906 2.660156 -2.90625 3.109375 -2.53125 C 3.566406 -2.164062 4.054688 -1.984375 4.578125 -1.984375 C 5.078125 -1.984375 5.488281 -2.164062 5.8125 -2.53125 C 6.144531 -2.894531 6.3125 -3.363281 6.3125 -3.9375 C 6.3125 -4.445312 6.15625 -4.847656 5.84375 -5.140625 C 5.53125 -5.441406 5.070312 -5.710938 4.46875 -5.953125 C 3.113281 -6.472656 2.1875 -7.019531 1.6875 -7.59375 C 1.1875 -8.164062 0.9375 -8.921875 0.9375 -9.859375 C 0.9375 -10.578125 1.101562 -11.25 1.4375 -11.875 C 1.769531 -12.5 2.242188 -13 2.859375 -13.375 C 3.472656 -13.75 4.148438 -13.9375 4.890625 -13.9375 C 5.554688 -13.9375 6.25 -13.785156 6.96875 -13.484375 C 7.695312 -13.179688 8.242188 -12.828125 8.609375 -12.421875 Z M 7.359375 -10.578125 "/></g></g><g style="fill:#3d393b;fill-opacity:0.4;"><g transform="translate(224.367956, 193.965969)"><path style="stroke:none" d=""/></g></g><g style="fill:#3d393b;fill-opacity:0.4;"><g transform="translate(234.066526, 193.965969)"><path style="stroke:none" d="M 7.359375 -10.578125 C 7.109375 -10.929688 6.816406 -11.207031 6.484375 -11.40625 C 6.160156 -11.601562 5.773438 -11.703125 5.328125 -11.703125 C 4.867188 -11.703125 4.476562 -11.550781 4.15625 -11.25 C 3.832031 -10.945312 3.671875 -10.585938 3.671875 -10.171875 C 3.671875 -9.785156 3.828125 -9.457031 4.140625 -9.1875 C 4.460938 -8.914062 4.9375 -8.660156 5.5625 -8.421875 C 6.644531 -7.984375 7.410156 -7.554688 7.859375 -7.140625 C 8.304688 -6.734375 8.613281 -6.296875 8.78125 -5.828125 C 8.957031 -5.359375 9.046875 -4.84375 9.046875 -4.28125 C 9.046875 -2.90625 8.640625 -1.785156 7.828125 -0.921875 C 7.015625 -0.0664062 5.9375 0.359375 4.59375 0.359375 C 3.65625 0.359375 2.835938 0.117188 2.140625 -0.359375 C 1.453125 -0.847656 0.875 -1.488281 0.40625 -2.28125 L 2.125 -3.953125 C 2.332031 -3.378906 2.660156 -2.90625 3.109375 -2.53125 C 3.566406 -2.164062 4.054688 -1.984375 4.578125 -1.984375 C 5.078125 -1.984375 5.488281 -2.164062 5.8125 -2.53125 C 6.144531 -2.894531 6.3125 -3.363281 6.3125 -3.9375 C 6.3125 -4.445312 6.15625 -4.847656 5.84375 -5.140625 C 5.53125 -5.441406 5.070312 -5.710938 4.46875 -5.953125 C 3.113281 -6.472656 2.1875 -7.019531 1.6875 -7.59375 C 1.1875 -8.164062 0.9375 -8.921875 0.9375 -9.859375 C 0.9375 -10.578125 1.101562 -11.25 1.4375 -11.875 C 1.769531 -12.5 2.242188 -13 2.859375 -13.375 C 3.472656 -13.75 4.148438 -13.9375 4.890625 -13.9375 C 5.554688 -13.9375 6.25 -13.785156 6.96875 -13.484375 C 7.695312 -13.179688 8.242188 -12.828125 8.609375 -12.421875 Z M 7.359375 -10.578125 "/></g></g><g style="fill:#3d393b;fill-opacity:0.4;"><g transform="translate(248.02834, 193.965969)"><path style="stroke:none" d="M 0.328125 -6.796875 C 0.328125 -8.171875 0.609375 -9.394531 1.171875 -10.46875 C 1.742188 -11.550781 2.539062 -12.398438 3.5625 -13.015625 C 4.59375 -13.628906 5.75 -13.9375 7.03125 -13.9375 C 8.34375 -13.9375 9.515625 -13.617188 10.546875 -12.984375 C 11.578125 -12.359375 12.367188 -11.5 12.921875 -10.40625 C 13.472656 -9.320312 13.75 -8.117188 13.75 -6.796875 C 13.75 -5.421875 13.460938 -4.1875 12.890625 -3.09375 C 12.328125 -2 11.535156 -1.148438 10.515625 -0.546875 C 9.503906 0.0546875 8.34375 0.359375 7.03125 0.359375 C 5.75 0.359375 4.597656 0.0625 3.578125 -0.53125 C 2.566406 -1.125 1.769531 -1.972656 1.1875 -3.078125 C 0.613281 -4.179688 0.328125 -5.421875 0.328125 -6.796875 Z M 7.015625 -11.328125 C 5.890625 -11.328125 4.945312 -10.894531 4.1875 -10.03125 C 3.4375 -9.164062 3.0625 -8.125 3.0625 -6.90625 C 3.0625 -5.550781 3.414062 -4.4375 4.125 -3.5625 C 4.84375 -2.6875 5.8125 -2.25 7.03125 -2.25 C 8.257812 -2.25 9.226562 -2.6875 9.9375 -3.5625 C 10.65625 -4.4375 11.015625 -5.550781 11.015625 -6.90625 C 11.015625 -8.132812 10.632812 -9.175781 9.875 -10.03125 C 9.125 -10.894531 8.171875 -11.328125 7.015625 -11.328125 Z M 7.015625 -11.328125 "/></g></g><g style="fill:#3d393b;fill-opacity:0.4;"><g transform="translate(266.595165, 193.965969)"><path style="stroke:none" d="M 3.625 -13.578125 L 3.625 -2.296875 L 7.359375 -2.296875 L 7.359375 0 L 0.96875 0 L 0.96875 -13.578125 Z M 3.625 -13.578125 "/></g></g><g style="fill:#3d393b;fill-opacity:0.4;"><g transform="translate(278.326434, 193.965969)"><path style="stroke:none" d="M 3.625 -13.578125 L 3.625 0 L 0.96875 0 L 0.96875 -13.578125 Z M 3.625 -13.578125 "/></g></g><g style="fill:#3d393b;fill-opacity:0.4;"><g transform="translate(287.395418, 193.965969)"><path style="stroke:none" d="M 10.046875 -9.96875 C 9.671875 -10.425781 9.21875 -10.78125 8.6875 -11.03125 C 8.15625 -11.28125 7.613281 -11.40625 7.0625 -11.40625 C 5.90625 -11.40625 4.945312 -10.945312 4.1875 -10.03125 C 3.4375 -9.125 3.0625 -8.023438 3.0625 -6.734375 C 3.0625 -5.460938 3.441406 -4.378906 4.203125 -3.484375 C 4.972656 -2.597656 5.914062 -2.15625 7.03125 -2.15625 C 7.613281 -2.15625 8.164062 -2.289062 8.6875 -2.5625 C 9.21875 -2.832031 9.671875 -3.175781 10.046875 -3.59375 L 10.046875 -0.453125 C 9.535156 -0.210938 9.03125 -0.0195312 8.53125 0.125 C 8.039062 0.28125 7.519531 0.359375 6.96875 0.359375 C 5.769531 0.359375 4.664062 0.0546875 3.65625 -0.546875 C 2.65625 -1.160156 1.847656 -2.019531 1.234375 -3.125 C 0.628906 -4.226562 0.328125 -5.410156 0.328125 -6.671875 C 0.328125 -7.992188 0.617188 -9.21875 1.203125 -10.34375 C 1.796875 -11.46875 2.601562 -12.347656 3.625 -12.984375 C 4.65625 -13.617188 5.785156 -13.9375 7.015625 -13.9375 C 7.554688 -13.9375 8.082031 -13.863281 8.59375 -13.71875 C 9.101562 -13.582031 9.585938 -13.390625 10.046875 -13.140625 Z M 10.046875 -9.96875 "/></g></g><g style="fill:#3d393b;fill-opacity:0.4;"><g transform="translate(302.70633, 193.965969)"><path style="stroke:none" d="M 3.625 -13.578125 L 3.625 0 L 0.96875 0 L 0.96875 -13.578125 Z M 3.625 -13.578125 "/></g></g><g style="fill:#3d393b;fill-opacity:0.4;"><g transform="translate(311.775315, 193.965969)"><path style="stroke:none" d="M 8.125 -13.578125 L 8.125 -11.265625 L 5.375 -11.265625 L 5.375 0 L 2.734375 0 L 2.734375 -11.265625 L 0 -11.265625 L 0 -13.578125 Z M 8.125 -13.578125 "/></g></g><g style="fill:#3d393b;fill-opacity:0.4;"><g transform="translate(324.388031, 193.965969)"><path style="stroke:none" d="M 0.328125 -6.796875 C 0.328125 -8.171875 0.609375 -9.394531 1.171875 -10.46875 C 1.742188 -11.550781 2.539062 -12.398438 3.5625 -13.015625 C 4.59375 -13.628906 5.75 -13.9375 7.03125 -13.9375 C 8.34375 -13.9375 9.515625 -13.617188 10.546875 -12.984375 C 11.578125 -12.359375 12.367188 -11.5 12.921875 -10.40625 C 13.472656 -9.320312 13.75 -8.117188 13.75 -6.796875 C 13.75 -5.421875 13.460938 -4.1875 12.890625 -3.09375 C 12.328125 -2 11.535156 -1.148438 10.515625 -0.546875 C 9.503906 0.0546875 8.34375 0.359375 7.03125 0.359375 C 5.75 0.359375 4.597656 0.0625 3.578125 -0.53125 C 2.566406 -1.125 1.769531 -1.972656 1.1875 -3.078125 C 0.613281 -4.179688 0.328125 -5.421875 0.328125 -6.796875 Z M 7.015625 -11.328125 C 5.890625 -11.328125 4.945312 -10.894531 4.1875 -10.03125 C 3.4375 -9.164062 3.0625 -8.125 3.0625 -6.90625 C 3.0625 -5.550781 3.414062 -4.4375 4.125 -3.5625 C 4.84375 -2.6875 5.8125 -2.25 7.03125 -2.25 C 8.257812 -2.25 9.226562 -2.6875 9.9375 -3.5625 C 10.65625 -4.4375 11.015625 -5.550781 11.015625 -6.90625 C 11.015625 -8.132812 10.632812 -9.175781 9.875 -10.03125 C 9.125 -10.894531 8.171875 -11.328125 7.015625 -11.328125 Z M 7.015625 -11.328125 "/></g></g><g style="fill:#3d393b;fill-opacity:0.4;"><g transform="translate(342.954832, 193.965969)"><path style="stroke:none" d="M 4.625 -13.578125 C 6.050781 -13.578125 7.148438 -13.222656 7.921875 -12.515625 C 8.703125 -11.816406 9.09375 -10.804688 9.09375 -9.484375 C 9.09375 -8.523438 8.832031 -7.6875 8.3125 -6.96875 C 7.789062 -6.257812 7.125 -5.84375 6.3125 -5.71875 L 10.15625 0 L 6.953125 0 L 3.65625 -5.46875 L 3.625 -5.46875 L 3.625 0 L 0.96875 0 L 0.96875 -13.578125 Z M 3.625 -7.328125 L 3.90625 -7.328125 C 4.820312 -7.328125 5.472656 -7.492188 5.859375 -7.828125 C 6.242188 -8.160156 6.4375 -8.6875 6.4375 -9.40625 C 6.4375 -10.113281 6.242188 -10.625 5.859375 -10.9375 C 5.484375 -11.25 4.84375 -11.40625 3.9375 -11.40625 L 3.625 -11.40625 Z M 3.625 -7.328125 "/></g></g><g style="fill:#3d393b;fill-opacity:0.4;"><g transform="translate(357.492284, 193.965969)"><path style="stroke:none" d="M 7.359375 -10.578125 C 7.109375 -10.929688 6.816406 -11.207031 6.484375 -11.40625 C 6.160156 -11.601562 5.773438 -11.703125 5.328125 -11.703125 C 4.867188 -11.703125 4.476562 -11.550781 4.15625 -11.25 C 3.832031 -10.945312 3.671875 -10.585938 3.671875 -10.171875 C 3.671875 -9.785156 3.828125 -9.457031 4.140625 -9.1875 C 4.460938 -8.914062 4.9375 -8.660156 5.5625 -8.421875 C 6.644531 -7.984375 7.410156 -7.554688 7.859375 -7.140625 C 8.304688 -6.734375 8.613281 -6.296875 8.78125 -5.828125 C 8.957031 -5.359375 9.046875 -4.84375 9.046875 -4.28125 C 9.046875 -2.90625 8.640625 -1.785156 7.828125 -0.921875 C 7.015625 -0.0664062 5.9375 0.359375 4.59375 0.359375 C 3.65625 0.359375 2.835938 0.117188 2.140625 -0.359375 C 1.453125 -0.847656 0.875 -1.488281 0.40625 -2.28125 L 2.125 -3.953125 C 2.332031 -3.378906 2.660156 -2.90625 3.109375 -2.53125 C 3.566406 -2.164062 4.054688 -1.984375 4.578125 -1.984375 C 5.078125 -1.984375 5.488281 -2.164062 5.8125 -2.53125 C 6.144531 -2.894531 6.3125 -3.363281 6.3125 -3.9375 C 6.3125 -4.445312 6.15625 -4.847656 5.84375 -5.140625 C 5.53125 -5.441406 5.070312 -5.710938 4.46875 -5.953125 C 3.113281 -6.472656 2.1875 -7.019531 1.6875 -7.59375 C 1.1875 -8.164062 0.9375 -8.921875 0.9375 -9.859375 C 0.9375 -10.578125 1.101562 -11.25 1.4375 -11.875 C 1.769531 -12.5 2.242188 -13 2.859375 -13.375 C 3.472656 -13.75 4.148438 -13.9375 4.890625 -13.9375 C 5.554688 -13.9375 6.25 -13.785156 6.96875 -13.484375 C 7.695312 -13.179688 8.242188 -12.828125 8.609375 -12.421875 Z M 7.359375 -10.578125 "/></g></g><g style="fill:#3d393b;fill-opacity:1;"><g transform="translate(9.626205, 192.374987)"><path style="stroke:none" d="M 4.359375 -13.9375 L 7.703125 -4.984375 L 10.90625 -13.9375 L 12.8125 -13.9375 L 14.84375 0 L 12.1875 0 L 11.109375 -8.421875 L 11.0625 -8.421875 L 7.984375 0.1875 L 7.078125 0.1875 L 4.109375 -8.421875 L 4.0625 -8.421875 L 2.859375 0 L 0.203125 0 L 2.484375 -13.9375 Z M 4.359375 -13.9375 "/></g></g><g style="fill:#3d393b;fill-opacity:1;"><g transform="translate(29.164393, 192.374987)"><path style="stroke:none" d="M 3.625 -13.578125 L 3.625 0 L 0.96875 0 L 0.96875 -13.578125 Z M 3.625 -13.578125 "/></g></g><g style="fill:#3d393b;fill-opacity:1;"><g transform="translate(38.233378, 192.374987)"><path style="stroke:none" d="M 10.046875 -9.96875 C 9.671875 -10.425781 9.21875 -10.78125 8.6875 -11.03125 C 8.15625 -11.28125 7.613281 -11.40625 7.0625 -11.40625 C 5.90625 -11.40625 4.945312 -10.945312 4.1875 -10.03125 C 3.4375 -9.125 3.0625 -8.023438 3.0625 -6.734375 C 3.0625 -5.460938 3.441406 -4.378906 4.203125 -3.484375 C 4.972656 -2.597656 5.914062 -2.15625 7.03125 -2.15625 C 7.613281 -2.15625 8.164062 -2.289062 8.6875 -2.5625 C 9.21875 -2.832031 9.671875 -3.175781 10.046875 -3.59375 L 10.046875 -0.453125 C 9.535156 -0.210938 9.03125 -0.0195312 8.53125 0.125 C 8.039062 0.28125 7.519531 0.359375 6.96875 0.359375 C 5.769531 0.359375 4.664062 0.0546875 3.65625 -0.546875 C 2.65625 -1.160156 1.847656 -2.019531 1.234375 -3.125 C 0.628906 -4.226562 0.328125 -5.410156 0.328125 -6.671875 C 0.328125 -7.992188 0.617188 -9.21875 1.203125 -10.34375 C 1.796875 -11.46875 2.601562 -12.347656 3.625 -12.984375 C 4.65625 -13.617188 5.785156 -13.9375 7.015625 -13.9375 C 7.554688 -13.9375 8.082031 -13.863281 8.59375 -13.71875 C 9.101562 -13.582031 9.585938 -13.390625 10.046875 -13.140625 Z M 10.046875 -9.96875 "/></g></g><g style="fill:#3d393b;fill-opacity:1;"><g transform="translate(53.544312, 192.374987)"><path style="stroke:none" d="M 3.625 -13.578125 L 3.625 -8.21875 L 8.515625 -8.21875 L 8.515625 -13.578125 L 11.15625 -13.578125 L 11.15625 0 L 8.515625 0 L 8.515625 -6.0625 L 3.625 -6.0625 L 3.625 0 L 0.96875 0 L 0.96875 -13.578125 Z M 3.625 -13.578125 "/></g></g><g style="fill:#3d393b;fill-opacity:1;"><g transform="translate(70.1684, 192.374987)"><path style="stroke:none" d="M 7.1875 -13.9375 L 12.328125 0 L 9.5 0 L 8.453125 -2.859375 L 3.75 -2.859375 L 2.625 0 L -0.15625 0 L 5.125 -13.9375 Z M 4.5 -5.015625 L 7.71875 -5.015625 L 6.03125 -9.953125 L 6 -9.953125 Z M 4.5 -5.015625 "/></g></g><g style="fill:#3d393b;fill-opacity:1;"><g transform="translate(86.828455, 192.374987)"><path style="stroke:none" d="M 7.984375 -13.578125 L 7.984375 -11.265625 L 3.625 -11.265625 L 3.625 -8.28125 L 7.828125 -8.28125 L 7.828125 -5.96875 L 3.625 -5.96875 L 3.625 -2.296875 L 7.984375 -2.296875 L 7.984375 0 L 0.96875 0 L 0.96875 -13.578125 Z M 7.984375 -13.578125 "/></g></g><g style="fill:#3d393b;fill-opacity:1;"><g transform="translate(100.106714, 192.374987)"><path style="stroke:none" d="M 3.625 -13.578125 L 3.625 -2.296875 L 7.359375 -2.296875 L 7.359375 0 L 0.96875 0 L 0.96875 -13.578125 Z M 3.625 -13.578125 "/></g></g><g style="fill:#3d393b;fill-opacity:1;"><g transform="translate(111.837972, 192.374987)"><path style="stroke:none" d=""/></g></g><g style="fill:#3d393b;fill-opacity:1;"><g transform="translate(121.536553, 192.374987)"><path style="stroke:none" d="M 7.359375 -10.578125 C 7.109375 -10.929688 6.816406 -11.207031 6.484375 -11.40625 C 6.160156 -11.601562 5.773438 -11.703125 5.328125 -11.703125 C 4.867188 -11.703125 4.476562 -11.550781 4.15625 -11.25 C 3.832031 -10.945312 3.671875 -10.585938 3.671875 -10.171875 C 3.671875 -9.785156 3.828125 -9.457031 4.140625 -9.1875 C 4.460938 -8.914062 4.9375 -8.660156 5.5625 -8.421875 C 6.644531 -7.984375 7.410156 -7.554688 7.859375 -7.140625 C 8.304688 -6.734375 8.613281 -6.296875 8.78125 -5.828125 C 8.957031 -5.359375 9.046875 -4.84375 9.046875 -4.28125 C 9.046875 -2.90625 8.640625 -1.785156 7.828125 -0.921875 C 7.015625 -0.0664062 5.9375 0.359375 4.59375 0.359375 C 3.65625 0.359375 2.835938 0.117188 2.140625 -0.359375 C 1.453125 -0.847656 0.875 -1.488281 0.40625 -2.28125 L 2.125 -3.953125 C 2.332031 -3.378906 2.660156 -2.90625 3.109375 -2.53125 C 3.566406 -2.164062 4.054688 -1.984375 4.578125 -1.984375 C 5.078125 -1.984375 5.488281 -2.164062 5.8125 -2.53125 C 6.144531 -2.894531 6.3125 -3.363281 6.3125 -3.9375 C 6.3125 -4.445312 6.15625 -4.847656 5.84375 -5.140625 C 5.53125 -5.441406 5.070312 -5.710938 4.46875 -5.953125 C 3.113281 -6.472656 2.1875 -7.019531 1.6875 -7.59375 C 1.1875 -8.164062 0.9375 -8.921875 0.9375 -9.859375 C 0.9375 -10.578125 1.101562 -11.25 1.4375 -11.875 C 1.769531 -12.5 2.242188 -13 2.859375 -13.375 C 3.472656 -13.75 4.148438 -13.9375 4.890625 -13.9375 C 5.554688 -13.9375 6.25 -13.785156 6.96875 -13.484375 C 7.695312 -13.179688 8.242188 -12.828125 8.609375 -12.421875 Z M 7.359375 -10.578125 "/></g></g><g style="fill:#3d393b;fill-opacity:1;"><g transform="translate(135.498366, 192.374987)"><path style="stroke:none" d="M 8.125 -13.578125 L 8.125 -11.265625 L 5.375 -11.265625 L 5.375 0 L 2.734375 0 L 2.734375 -11.265625 L 0 -11.265625 L 0 -13.578125 Z M 8.125 -13.578125 "/></g></g><g style="fill:#3d393b;fill-opacity:1;"><g transform="translate(148.111059, 192.374987)"><path style="stroke:none" d="M 7.984375 -13.578125 L 7.984375 -11.265625 L 3.625 -11.265625 L 3.625 -8.28125 L 7.828125 -8.28125 L 7.828125 -5.96875 L 3.625 -5.96875 L 3.625 -2.296875 L 7.984375 -2.296875 L 7.984375 0 L 0.96875 0 L 0.96875 -13.578125 Z M 7.984375 -13.578125 "/></g></g><g style="fill:#3d393b;fill-opacity:1;"><g transform="translate(161.389318, 192.374987)"><path style="stroke:none" d="M 2.59375 -13.578125 L 5.84375 -4.421875 L 5.890625 -4.421875 L 8.90625 -13.578125 L 11.75 -13.578125 L 6.484375 0.359375 L 4.9375 0.359375 L -0.25 -13.578125 Z M 2.59375 -13.578125 "/></g></g><g style="fill:#3d393b;fill-opacity:1;"><g transform="translate(177.383809, 192.374987)"><path style="stroke:none" d="M 7.984375 -13.578125 L 7.984375 -11.265625 L 3.625 -11.265625 L 3.625 -8.28125 L 7.828125 -8.28125 L 7.828125 -5.96875 L 3.625 -5.96875 L 3.625 -2.296875 L 7.984375 -2.296875 L 7.984375 0 L 0.96875 0 L 0.96875 -13.578125 Z M 7.984375 -13.578125 "/></g></g><g style="fill:#3d393b;fill-opacity:1;"><g transform="translate(190.662067, 192.374987)"><path style="stroke:none" d="M 2.875 -13.9375 L 10.03125 -4.453125 L 10.0625 -4.453125 L 10.0625 -13.578125 L 12.703125 -13.578125 L 12.703125 0.265625 L 10.796875 0.265625 L 3.65625 -9.21875 L 3.625 -9.21875 L 3.625 0 L 0.96875 0 L 0.96875 -13.9375 Z M 2.875 -13.9375 "/></g></g><g style="fill:#3d393b;fill-opacity:1;"><g transform="translate(208.815143, 192.374987)"><path style="stroke:none" d="M 7.359375 -10.578125 C 7.109375 -10.929688 6.816406 -11.207031 6.484375 -11.40625 C 6.160156 -11.601562 5.773438 -11.703125 5.328125 -11.703125 C 4.867188 -11.703125 4.476562 -11.550781 4.15625 -11.25 C 3.832031 -10.945312 3.671875 -10.585938 3.671875 -10.171875 C 3.671875 -9.785156 3.828125 -9.457031 4.140625 -9.1875 C 4.460938 -8.914062 4.9375 -8.660156 5.5625 -8.421875 C 6.644531 -7.984375 7.410156 -7.554688 7.859375 -7.140625 C 8.304688 -6.734375 8.613281 -6.296875 8.78125 -5.828125 C 8.957031 -5.359375 9.046875 -4.84375 9.046875 -4.28125 C 9.046875 -2.90625 8.640625 -1.785156 7.828125 -0.921875 C 7.015625 -0.0664062 5.9375 0.359375 4.59375 0.359375 C 3.65625 0.359375 2.835938 0.117188 2.140625 -0.359375 C 1.453125 -0.847656 0.875 -1.488281 0.40625 -2.28125 L 2.125 -3.953125 C 2.332031 -3.378906 2.660156 -2.90625 3.109375 -2.53125 C 3.566406 -2.164062 4.054688 -1.984375 4.578125 -1.984375 C 5.078125 -1.984375 5.488281 -2.164062 5.8125 -2.53125 C 6.144531 -2.894531 6.3125 -3.363281 6.3125 -3.9375 C 6.3125 -4.445312 6.15625 -4.847656 5.84375 -5.140625 C 5.53125 -5.441406 5.070312 -5.710938 4.46875 -5.953125 C 3.113281 -6.472656 2.1875 -7.019531 1.6875 -7.59375 C 1.1875 -8.164062 0.9375 -8.921875 0.9375 -9.859375 C 0.9375 -10.578125 1.101562 -11.25 1.4375 -11.875 C 1.769531 -12.5 2.242188 -13 2.859375 -13.375 C 3.472656 -13.75 4.148438 -13.9375 4.890625 -13.9375 C 5.554688 -13.9375 6.25 -13.785156 6.96875 -13.484375 C 7.695312 -13.179688 8.242188 -12.828125 8.609375 -12.421875 Z M 7.359375 -10.578125 "/></g></g><g style="fill:#3d393b;fill-opacity:1;"><g transform="translate(222.77698, 192.374987)"><path style="stroke:none" d=""/></g></g><g style="fill:#3d393b;fill-opacity:1;"><g transform="translate(232.475549, 192.374987)"><path style="stroke:none" d="M 7.359375 -10.578125 C 7.109375 -10.929688 6.816406 -11.207031 6.484375 -11.40625 C 6.160156 -11.601562 5.773438 -11.703125 5.328125 -11.703125 C 4.867188 -11.703125 4.476562 -11.550781 4.15625 -11.25 C 3.832031 -10.945312 3.671875 -10.585938 3.671875 -10.171875 C 3.671875 -9.785156 3.828125 -9.457031 4.140625 -9.1875 C 4.460938 -8.914062 4.9375 -8.660156 5.5625 -8.421875 C 6.644531 -7.984375 7.410156 -7.554688 7.859375 -7.140625 C 8.304688 -6.734375 8.613281 -6.296875 8.78125 -5.828125 C 8.957031 -5.359375 9.046875 -4.84375 9.046875 -4.28125 C 9.046875 -2.90625 8.640625 -1.785156 7.828125 -0.921875 C 7.015625 -0.0664062 5.9375 0.359375 4.59375 0.359375 C 3.65625 0.359375 2.835938 0.117188 2.140625 -0.359375 C 1.453125 -0.847656 0.875 -1.488281 0.40625 -2.28125 L 2.125 -3.953125 C 2.332031 -3.378906 2.660156 -2.90625 3.109375 -2.53125 C 3.566406 -2.164062 4.054688 -1.984375 4.578125 -1.984375 C 5.078125 -1.984375 5.488281 -2.164062 5.8125 -2.53125 C 6.144531 -2.894531 6.3125 -3.363281 6.3125 -3.9375 C 6.3125 -4.445312 6.15625 -4.847656 5.84375 -5.140625 C 5.53125 -5.441406 5.070312 -5.710938 4.46875 -5.953125 C 3.113281 -6.472656 2.1875 -7.019531 1.6875 -7.59375 C 1.1875 -8.164062 0.9375 -8.921875 0.9375 -9.859375 C 0.9375 -10.578125 1.101562 -11.25 1.4375 -11.875 C 1.769531 -12.5 2.242188 -13 2.859375 -13.375 C 3.472656 -13.75 4.148438 -13.9375 4.890625 -13.9375 C 5.554688 -13.9375 6.25 -13.785156 6.96875 -13.484375 C 7.695312 -13.179688 8.242188 -12.828125 8.609375 -12.421875 Z M 7.359375 -10.578125 "/></g></g><g style="fill:#3d393b;fill-opacity:1;"><g transform="translate(246.437363, 192.374987)"><path style="stroke:none" d="M 0.328125 -6.796875 C 0.328125 -8.171875 0.609375 -9.394531 1.171875 -10.46875 C 1.742188 -11.550781 2.539062 -12.398438 3.5625 -13.015625 C 4.59375 -13.628906 5.75 -13.9375 7.03125 -13.9375 C 8.34375 -13.9375 9.515625 -13.617188 10.546875 -12.984375 C 11.578125 -12.359375 12.367188 -11.5 12.921875 -10.40625 C 13.472656 -9.320312 13.75 -8.117188 13.75 -6.796875 C 13.75 -5.421875 13.460938 -4.1875 12.890625 -3.09375 C 12.328125 -2 11.535156 -1.148438 10.515625 -0.546875 C 9.503906 0.0546875 8.34375 0.359375 7.03125 0.359375 C 5.75 0.359375 4.597656 0.0625 3.578125 -0.53125 C 2.566406 -1.125 1.769531 -1.972656 1.1875 -3.078125 C 0.613281 -4.179688 0.328125 -5.421875 0.328125 -6.796875 Z M 7.015625 -11.328125 C 5.890625 -11.328125 4.945312 -10.894531 4.1875 -10.03125 C 3.4375 -9.164062 3.0625 -8.125 3.0625 -6.90625 C 3.0625 -5.550781 3.414062 -4.4375 4.125 -3.5625 C 4.84375 -2.6875 5.8125 -2.25 7.03125 -2.25 C 8.257812 -2.25 9.226562 -2.6875 9.9375 -3.5625 C 10.65625 -4.4375 11.015625 -5.550781 11.015625 -6.90625 C 11.015625 -8.132812 10.632812 -9.175781 9.875 -10.03125 C 9.125 -10.894531 8.171875 -11.328125 7.015625 -11.328125 Z M 7.015625 -11.328125 "/></g></g><g style="fill:#3d393b;fill-opacity:1;"><g transform="translate(265.004188, 192.374987)"><path style="stroke:none" d="M 3.625 -13.578125 L 3.625 -2.296875 L 7.359375 -2.296875 L 7.359375 0 L 0.96875 0 L 0.96875 -13.578125 Z M 3.625 -13.578125 "/></g></g><g style="fill:#3d393b;fill-opacity:1;"><g transform="translate(276.735457, 192.374987)"><path style="stroke:none" d="M 3.625 -13.578125 L 3.625 0 L 0.96875 0 L 0.96875 -13.578125 Z M 3.625 -13.578125 "/></g></g><g style="fill:#3d393b;fill-opacity:1;"><g transform="translate(285.804441, 192.374987)"><path style="stroke:none" d="M 10.046875 -9.96875 C 9.671875 -10.425781 9.21875 -10.78125 8.6875 -11.03125 C 8.15625 -11.28125 7.613281 -11.40625 7.0625 -11.40625 C 5.90625 -11.40625 4.945312 -10.945312 4.1875 -10.03125 C 3.4375 -9.125 3.0625 -8.023438 3.0625 -6.734375 C 3.0625 -5.460938 3.441406 -4.378906 4.203125 -3.484375 C 4.972656 -2.597656 5.914062 -2.15625 7.03125 -2.15625 C 7.613281 -2.15625 8.164062 -2.289062 8.6875 -2.5625 C 9.21875 -2.832031 9.671875 -3.175781 10.046875 -3.59375 L 10.046875 -0.453125 C 9.535156 -0.210938 9.03125 -0.0195312 8.53125 0.125 C 8.039062 0.28125 7.519531 0.359375 6.96875 0.359375 C 5.769531 0.359375 4.664062 0.0546875 3.65625 -0.546875 C 2.65625 -1.160156 1.847656 -2.019531 1.234375 -3.125 C 0.628906 -4.226562 0.328125 -5.410156 0.328125 -6.671875 C 0.328125 -7.992188 0.617188 -9.21875 1.203125 -10.34375 C 1.796875 -11.46875 2.601562 -12.347656 3.625 -12.984375 C 4.65625 -13.617188 5.785156 -13.9375 7.015625 -13.9375 C 7.554688 -13.9375 8.082031 -13.863281 8.59375 -13.71875 C 9.101562 -13.582031 9.585938 -13.390625 10.046875 -13.140625 Z M 10.046875 -9.96875 "/></g></g><g style="fill:#3d393b;fill-opacity:1;"><g transform="translate(301.115354, 192.374987)"><path style="stroke:none" d="M 3.625 -13.578125 L 3.625 0 L 0.96875 0 L 0.96875 -13.578125 Z M 3.625 -13.578125 "/></g></g><g style="fill:#3d393b;fill-opacity:1;"><g transform="translate(310.184338, 192.374987)"><path style="stroke:none" d="M 8.125 -13.578125 L 8.125 -11.265625 L 5.375 -11.265625 L 5.375 0 L 2.734375 0 L 2.734375 -11.265625 L 0 -11.265625 L 0 -13.578125 Z M 8.125 -13.578125 "/></g></g><g style="fill:#3d393b;fill-opacity:1;"><g transform="translate(322.797054, 192.374987)"><path style="stroke:none" d="M 0.328125 -6.796875 C 0.328125 -8.171875 0.609375 -9.394531 1.171875 -10.46875 C 1.742188 -11.550781 2.539062 -12.398438 3.5625 -13.015625 C 4.59375 -13.628906 5.75 -13.9375 7.03125 -13.9375 C 8.34375 -13.9375 9.515625 -13.617188 10.546875 -12.984375 C 11.578125 -12.359375 12.367188 -11.5 12.921875 -10.40625 C 13.472656 -9.320312 13.75 -8.117188 13.75 -6.796875 C 13.75 -5.421875 13.460938 -4.1875 12.890625 -3.09375 C 12.328125 -2 11.535156 -1.148438 10.515625 -0.546875 C 9.503906 0.0546875 8.34375 0.359375 7.03125 0.359375 C 5.75 0.359375 4.597656 0.0625 3.578125 -0.53125 C 2.566406 -1.125 1.769531 -1.972656 1.1875 -3.078125 C 0.613281 -4.179688 0.328125 -5.421875 0.328125 -6.796875 Z M 7.015625 -11.328125 C 5.890625 -11.328125 4.945312 -10.894531 4.1875 -10.03125 C 3.4375 -9.164062 3.0625 -8.125 3.0625 -6.90625 C 3.0625 -5.550781 3.414062 -4.4375 4.125 -3.5625 C 4.84375 -2.6875 5.8125 -2.25 7.03125 -2.25 C 8.257812 -2.25 9.226562 -2.6875 9.9375 -3.5625 C 10.65625 -4.4375 11.015625 -5.550781 11.015625 -6.90625 C 11.015625 -8.132812 10.632812 -9.175781 9.875 -10.03125 C 9.125 -10.894531 8.171875 -11.328125 7.015625 -11.328125 Z M 7.015625 -11.328125 "/></g></g><g style="fill:#3d393b;fill-opacity:1;"><g transform="translate(341.363856, 192.374987)"><path style="stroke:none" d="M 4.625 -13.578125 C 6.050781 -13.578125 7.148438 -13.222656 7.921875 -12.515625 C 8.703125 -11.816406 9.09375 -10.804688 9.09375 -9.484375 C 9.09375 -8.523438 8.832031 -7.6875 8.3125 -6.96875 C 7.789062 -6.257812 7.125 -5.84375 6.3125 -5.71875 L 10.15625 0 L 6.953125 0 L 3.65625 -5.46875 L 3.625 -5.46875 L 3.625 0 L 0.96875 0 L 0.96875 -13.578125 Z M 3.625 -7.328125 L 3.90625 -7.328125 C 4.820312 -7.328125 5.472656 -7.492188 5.859375 -7.828125 C 6.242188 -8.160156 6.4375 -8.6875 6.4375 -9.40625 C 6.4375 -10.113281 6.242188 -10.625 5.859375 -10.9375 C 5.484375 -11.25 4.84375 -11.40625 3.9375 -11.40625 L 3.625 -11.40625 Z M 3.625 -7.328125 "/></g></g><g style="fill:#3d393b;fill-opacity:1;"><g transform="translate(355.901307, 192.374987)"><path style="stroke:none" d="M 7.359375 -10.578125 C 7.109375 -10.929688 6.816406 -11.207031 6.484375 -11.40625 C 6.160156 -11.601562 5.773438 -11.703125 5.328125 -11.703125 C 4.867188 -11.703125 4.476562 -11.550781 4.15625 -11.25 C 3.832031 -10.945312 3.671875 -10.585938 3.671875 -10.171875 C 3.671875 -9.785156 3.828125 -9.457031 4.140625 -9.1875 C 4.460938 -8.914062 4.9375 -8.660156 5.5625 -8.421875 C 6.644531 -7.984375 7.410156 -7.554688 7.859375 -7.140625 C 8.304688 -6.734375 8.613281 -6.296875 8.78125 -5.828125 C 8.957031 -5.359375 9.046875 -4.84375 9.046875 -4.28125 C 9.046875 -2.90625 8.640625 -1.785156 7.828125 -0.921875 C 7.015625 -0.0664062 5.9375 0.359375 4.59375 0.359375 C 3.65625 0.359375 2.835938 0.117188 2.140625 -0.359375 C 1.453125 -0.847656 0.875 -1.488281 0.40625 -2.28125 L 2.125 -3.953125 C 2.332031 -3.378906 2.660156 -2.90625 3.109375 -2.53125 C 3.566406 -2.164062 4.054688 -1.984375 4.578125 -1.984375 C 5.078125 -1.984375 5.488281 -2.164062 5.8125 -2.53125 C 6.144531 -2.894531 6.3125 -3.363281 6.3125 -3.9375 C 6.3125 -4.445312 6.15625 -4.847656 5.84375 -5.140625 C 5.53125 -5.441406 5.070312 -5.710938 4.46875 -5.953125 C 3.113281 -6.472656 2.1875 -7.019531 1.6875 -7.59375 C 1.1875 -8.164062 0.9375 -8.921875 0.9375 -9.859375 C 0.9375 -10.578125 1.101562 -11.25 1.4375 -11.875 C 1.769531 -12.5 2.242188 -13 2.859375 -13.375 C 3.472656 -13.75 4.148438 -13.9375 4.890625 -13.9375 C 5.554688 -13.9375 6.25 -13.785156 6.96875 -13.484375 C 7.695312 -13.179688 8.242188 -12.828125 8.609375 -12.421875 Z M 7.359375 -10.578125 "/></g></g></g></svg>