<svg xmlns="http://www.w3.org/2000/svg" xmlns:xlink="http://www.w3.org/1999/xlink" width="300" zoomAndPan="magnify" viewBox="0 0 224.87999 37.5" height="50" preserveAspectRatio="xMidYMid meet" version="1.2"><defs/><g id="e917d7e6de"><g style="fill:#3d393b;fill-opacity:0.4;"><g transform="translate(8.303355, 22.403273)"><path style="stroke:none" d="M 2.578125 -8.21875 L 4.546875 -2.9375 L 6.4375 -8.21875 L 7.5625 -8.21875 L 8.765625 0 L 7.1875 0 L 6.5625 -4.96875 L 6.53125 -4.96875 L 4.71875 0.109375 L 4.171875 0.109375 L 2.421875 -4.96875 L 2.40625 -4.96875 L 1.6875 0 L 0.109375 0 L 1.46875 -8.21875 Z M 2.578125 -8.21875 "/></g></g><g style="fill:#3d393b;fill-opacity:0.4;"><g transform="translate(19.845459, 22.403273)"><path style="stroke:none" d="M 2.140625 -8.015625 L 2.140625 0 L 0.578125 0 L 0.578125 -8.015625 Z M 2.140625 -8.015625 "/></g></g><g style="fill:#3d393b;fill-opacity:0.4;"><g transform="translate(25.20213, 22.403273)"><path style="stroke:none" d="M 5.921875 -5.890625 C 5.703125 -6.160156 5.4375 -6.367188 5.125 -6.515625 C 4.8125 -6.660156 4.492188 -6.734375 4.171875 -6.734375 C 3.484375 -6.734375 2.914062 -6.460938 2.46875 -5.921875 C 2.03125 -5.390625 1.8125 -4.738281 1.8125 -3.96875 C 1.8125 -3.21875 2.035156 -2.582031 2.484375 -2.0625 C 2.941406 -1.539062 3.5 -1.28125 4.15625 -1.28125 C 4.5 -1.28125 4.820312 -1.359375 5.125 -1.515625 C 5.4375 -1.671875 5.703125 -1.875 5.921875 -2.125 L 5.921875 -0.265625 C 5.628906 -0.117188 5.332031 -0.00390625 5.03125 0.078125 C 4.738281 0.171875 4.429688 0.21875 4.109375 0.21875 C 3.398438 0.21875 2.75 0.0351562 2.15625 -0.328125 C 1.570312 -0.691406 1.097656 -1.195312 0.734375 -1.84375 C 0.367188 -2.5 0.1875 -3.195312 0.1875 -3.9375 C 0.1875 -4.71875 0.359375 -5.4375 0.703125 -6.09375 C 1.054688 -6.757812 1.535156 -7.28125 2.140625 -7.65625 C 2.742188 -8.03125 3.410156 -8.21875 4.140625 -8.21875 C 4.460938 -8.21875 4.773438 -8.175781 5.078125 -8.09375 C 5.378906 -8.019531 5.660156 -7.90625 5.921875 -7.75 Z M 5.921875 -5.890625 "/></g></g><g style="fill:#3d393b;fill-opacity:0.4;"><g transform="translate(34.246685, 22.403273)"><path style="stroke:none" d="M 2.140625 -8.015625 L 2.140625 -4.859375 L 5.03125 -4.859375 L 5.03125 -8.015625 L 6.59375 -8.015625 L 6.59375 0 L 5.03125 0 L 5.03125 -3.578125 L 2.140625 -3.578125 L 2.140625 0 L 0.578125 0 L 0.578125 -8.015625 Z M 2.140625 -8.015625 "/></g></g><g style="fill:#3d393b;fill-opacity:0.4;"><g transform="translate(44.067071, 22.403273)"><path style="stroke:none" d="M 4.234375 -8.21875 L 7.28125 0 L 5.609375 0 L 5 -1.6875 L 2.203125 -1.6875 L 1.546875 0 L -0.09375 0 L 3.03125 -8.21875 Z M 2.65625 -2.96875 L 4.5625 -2.96875 L 3.5625 -5.875 L 3.53125 -5.875 Z M 2.65625 -2.96875 "/></g></g><g style="fill:#3d393b;fill-opacity:0.4;"><g transform="translate(53.908711, 22.403273)"><path style="stroke:none" d="M 4.71875 -8.015625 L 4.71875 -6.65625 L 2.140625 -6.65625 L 2.140625 -4.890625 L 4.625 -4.890625 L 4.625 -3.53125 L 2.140625 -3.53125 L 2.140625 -1.359375 L 4.71875 -1.359375 L 4.71875 0 L 0.578125 0 L 0.578125 -8.015625 Z M 4.71875 -8.015625 "/></g></g><g style="fill:#3d393b;fill-opacity:0.4;"><g transform="translate(61.752314, 22.403273)"><path style="stroke:none" d="M 2.140625 -8.015625 L 2.140625 -1.359375 L 4.34375 -1.359375 L 4.34375 0 L 0.578125 0 L 0.578125 -8.015625 Z M 2.140625 -8.015625 "/></g></g><g style="fill:#3d393b;fill-opacity:0.4;"><g transform="translate(68.681911, 22.403273)"><path style="stroke:none" d=""/></g></g><g style="fill:#3d393b;fill-opacity:0.4;"><g transform="translate(74.410556, 22.403273)"><path style="stroke:none" d="M 4.34375 -6.25 C 4.195312 -6.457031 4.023438 -6.617188 3.828125 -6.734375 C 3.628906 -6.847656 3.398438 -6.90625 3.140625 -6.90625 C 2.867188 -6.90625 2.640625 -6.816406 2.453125 -6.640625 C 2.265625 -6.460938 2.171875 -6.25 2.171875 -6 C 2.171875 -5.769531 2.265625 -5.578125 2.453125 -5.421875 C 2.640625 -5.265625 2.914062 -5.113281 3.28125 -4.96875 C 3.914062 -4.707031 4.363281 -4.457031 4.625 -4.21875 C 4.894531 -3.976562 5.082031 -3.71875 5.1875 -3.4375 C 5.289062 -3.164062 5.34375 -2.863281 5.34375 -2.53125 C 5.34375 -1.71875 5.101562 -1.054688 4.625 -0.546875 C 4.144531 -0.0351562 3.503906 0.21875 2.703125 0.21875 C 2.148438 0.21875 1.671875 0.078125 1.265625 -0.203125 C 0.859375 -0.492188 0.519531 -0.875 0.25 -1.34375 L 1.25 -2.34375 C 1.375 -2 1.566406 -1.71875 1.828125 -1.5 C 2.097656 -1.28125 2.390625 -1.171875 2.703125 -1.171875 C 2.992188 -1.171875 3.238281 -1.273438 3.4375 -1.484375 C 3.632812 -1.703125 3.734375 -1.984375 3.734375 -2.328125 C 3.734375 -2.617188 3.640625 -2.851562 3.453125 -3.03125 C 3.265625 -3.207031 2.992188 -3.367188 2.640625 -3.515625 C 1.835938 -3.816406 1.285156 -4.140625 0.984375 -4.484375 C 0.691406 -4.828125 0.546875 -5.273438 0.546875 -5.828125 C 0.546875 -6.242188 0.644531 -6.632812 0.84375 -7 C 1.039062 -7.375 1.320312 -7.671875 1.6875 -7.890625 C 2.050781 -8.109375 2.453125 -8.21875 2.890625 -8.21875 C 3.273438 -8.21875 3.679688 -8.128906 4.109375 -7.953125 C 4.546875 -7.773438 4.867188 -7.566406 5.078125 -7.328125 Z M 4.34375 -6.25 "/></g></g><g style="fill:#3d393b;fill-opacity:0.4;"><g transform="translate(82.658015, 22.403273)"><path style="stroke:none" d="M 4.796875 -8.015625 L 4.796875 -6.65625 L 3.171875 -6.65625 L 3.171875 0 L 1.609375 0 L 1.609375 -6.65625 L 0 -6.65625 L 0 -8.015625 Z M 4.796875 -8.015625 "/></g></g><g style="fill:#3d393b;fill-opacity:0.4;"><g transform="translate(90.108378, 22.403273)"><path style="stroke:none" d="M 4.71875 -8.015625 L 4.71875 -6.65625 L 2.140625 -6.65625 L 2.140625 -4.890625 L 4.625 -4.890625 L 4.625 -3.53125 L 2.140625 -3.53125 L 2.140625 -1.359375 L 4.71875 -1.359375 L 4.71875 0 L 0.578125 0 L 0.578125 -8.015625 Z M 4.71875 -8.015625 "/></g></g><g style="fill:#3d393b;fill-opacity:0.4;"><g transform="translate(97.951981, 22.403273)"><path style="stroke:none" d="M 1.53125 -8.015625 L 3.453125 -2.609375 L 3.46875 -2.609375 L 5.265625 -8.015625 L 6.9375 -8.015625 L 3.828125 0.21875 L 2.90625 0.21875 L -0.15625 -8.015625 Z M 1.53125 -8.015625 "/></g></g><g style="fill:#3d393b;fill-opacity:0.4;"><g transform="translate(107.400393, 22.403273)"><path style="stroke:none" d="M 4.71875 -8.015625 L 4.71875 -6.65625 L 2.140625 -6.65625 L 2.140625 -4.890625 L 4.625 -4.890625 L 4.625 -3.53125 L 2.140625 -3.53125 L 2.140625 -1.359375 L 4.71875 -1.359375 L 4.71875 0 L 0.578125 0 L 0.578125 -8.015625 Z M 4.71875 -8.015625 "/></g></g><g style="fill:#3d393b;fill-opacity:0.4;"><g transform="translate(115.243996, 22.403273)"><path style="stroke:none" d="M 1.703125 -8.21875 L 5.921875 -2.625 L 5.9375 -2.625 L 5.9375 -8.015625 L 7.5 -8.015625 L 7.5 0.15625 L 6.375 0.15625 L 2.15625 -5.4375 L 2.140625 -5.4375 L 2.140625 0 L 0.578125 0 L 0.578125 -8.21875 Z M 1.703125 -8.21875 "/></g></g><g style="fill:#3d393b;fill-opacity:0.4;"><g transform="translate(125.967749, 22.403273)"><path style="stroke:none" d="M 4.34375 -6.25 C 4.195312 -6.457031 4.023438 -6.617188 3.828125 -6.734375 C 3.628906 -6.847656 3.398438 -6.90625 3.140625 -6.90625 C 2.867188 -6.90625 2.640625 -6.816406 2.453125 -6.640625 C 2.265625 -6.460938 2.171875 -6.25 2.171875 -6 C 2.171875 -5.769531 2.265625 -5.578125 2.453125 -5.421875 C 2.640625 -5.265625 2.914062 -5.113281 3.28125 -4.96875 C 3.914062 -4.707031 4.363281 -4.457031 4.625 -4.21875 C 4.894531 -3.976562 5.082031 -3.71875 5.1875 -3.4375 C 5.289062 -3.164062 5.34375 -2.863281 5.34375 -2.53125 C 5.34375 -1.71875 5.101562 -1.054688 4.625 -0.546875 C 4.144531 -0.0351562 3.503906 0.21875 2.703125 0.21875 C 2.148438 0.21875 1.671875 0.078125 1.265625 -0.203125 C 0.859375 -0.492188 0.519531 -0.875 0.25 -1.34375 L 1.25 -2.34375 C 1.375 -2 1.566406 -1.71875 1.828125 -1.5 C 2.097656 -1.28125 2.390625 -1.171875 2.703125 -1.171875 C 2.992188 -1.171875 3.238281 -1.273438 3.4375 -1.484375 C 3.632812 -1.703125 3.734375 -1.984375 3.734375 -2.328125 C 3.734375 -2.617188 3.640625 -2.851562 3.453125 -3.03125 C 3.265625 -3.207031 2.992188 -3.367188 2.640625 -3.515625 C 1.835938 -3.816406 1.285156 -4.140625 0.984375 -4.484375 C 0.691406 -4.828125 0.546875 -5.273438 0.546875 -5.828125 C 0.546875 -6.242188 0.644531 -6.632812 0.84375 -7 C 1.039062 -7.375 1.320312 -7.671875 1.6875 -7.890625 C 2.050781 -8.109375 2.453125 -8.21875 2.890625 -8.21875 C 3.273438 -8.21875 3.679688 -8.128906 4.109375 -7.953125 C 4.546875 -7.773438 4.867188 -7.566406 5.078125 -7.328125 Z M 4.34375 -6.25 "/></g></g><g style="fill:#3d393b;fill-opacity:0.4;"><g transform="translate(134.215209, 22.403273)"><path style="stroke:none" d=""/></g></g><g style="fill:#3d393b;fill-opacity:0.4;"><g transform="translate(139.943853, 22.403273)"><path style="stroke:none" d="M 4.34375 -6.25 C 4.195312 -6.457031 4.023438 -6.617188 3.828125 -6.734375 C 3.628906 -6.847656 3.398438 -6.90625 3.140625 -6.90625 C 2.867188 -6.90625 2.640625 -6.816406 2.453125 -6.640625 C 2.265625 -6.460938 2.171875 -6.25 2.171875 -6 C 2.171875 -5.769531 2.265625 -5.578125 2.453125 -5.421875 C 2.640625 -5.265625 2.914062 -5.113281 3.28125 -4.96875 C 3.914062 -4.707031 4.363281 -4.457031 4.625 -4.21875 C 4.894531 -3.976562 5.082031 -3.71875 5.1875 -3.4375 C 5.289062 -3.164062 5.34375 -2.863281 5.34375 -2.53125 C 5.34375 -1.71875 5.101562 -1.054688 4.625 -0.546875 C 4.144531 -0.0351562 3.503906 0.21875 2.703125 0.21875 C 2.148438 0.21875 1.671875 0.078125 1.265625 -0.203125 C 0.859375 -0.492188 0.519531 -0.875 0.25 -1.34375 L 1.25 -2.34375 C 1.375 -2 1.566406 -1.71875 1.828125 -1.5 C 2.097656 -1.28125 2.390625 -1.171875 2.703125 -1.171875 C 2.992188 -1.171875 3.238281 -1.273438 3.4375 -1.484375 C 3.632812 -1.703125 3.734375 -1.984375 3.734375 -2.328125 C 3.734375 -2.617188 3.640625 -2.851562 3.453125 -3.03125 C 3.265625 -3.207031 2.992188 -3.367188 2.640625 -3.515625 C 1.835938 -3.816406 1.285156 -4.140625 0.984375 -4.484375 C 0.691406 -4.828125 0.546875 -5.273438 0.546875 -5.828125 C 0.546875 -6.242188 0.644531 -6.632812 0.84375 -7 C 1.039062 -7.375 1.320312 -7.671875 1.6875 -7.890625 C 2.050781 -8.109375 2.453125 -8.21875 2.890625 -8.21875 C 3.273438 -8.21875 3.679688 -8.128906 4.109375 -7.953125 C 4.546875 -7.773438 4.867188 -7.566406 5.078125 -7.328125 Z M 4.34375 -6.25 "/></g></g><g style="fill:#3d393b;fill-opacity:0.4;"><g transform="translate(148.191313, 22.403273)"><path style="stroke:none" d="M 0.1875 -4.015625 C 0.1875 -4.828125 0.351562 -5.550781 0.6875 -6.1875 C 1.03125 -6.820312 1.503906 -7.316406 2.109375 -7.671875 C 2.710938 -8.035156 3.394531 -8.21875 4.15625 -8.21875 C 4.925781 -8.21875 5.613281 -8.03125 6.21875 -7.65625 C 6.832031 -7.289062 7.300781 -6.785156 7.625 -6.140625 C 7.957031 -5.503906 8.125 -4.796875 8.125 -4.015625 C 8.125 -3.203125 7.953125 -2.472656 7.609375 -1.828125 C 7.273438 -1.179688 6.804688 -0.675781 6.203125 -0.3125 C 5.609375 0.0390625 4.925781 0.21875 4.15625 0.21875 C 3.394531 0.21875 2.710938 0.0390625 2.109375 -0.3125 C 1.515625 -0.664062 1.046875 -1.164062 0.703125 -1.8125 C 0.359375 -2.46875 0.1875 -3.203125 0.1875 -4.015625 Z M 4.140625 -6.6875 C 3.472656 -6.6875 2.914062 -6.429688 2.46875 -5.921875 C 2.03125 -5.410156 1.8125 -4.796875 1.8125 -4.078125 C 1.8125 -3.273438 2.019531 -2.613281 2.4375 -2.09375 C 2.863281 -1.582031 3.4375 -1.328125 4.15625 -1.328125 C 4.875 -1.328125 5.441406 -1.582031 5.859375 -2.09375 C 6.285156 -2.613281 6.5 -3.273438 6.5 -4.078125 C 6.5 -4.796875 6.273438 -5.410156 5.828125 -5.921875 C 5.378906 -6.429688 4.816406 -6.6875 4.140625 -6.6875 Z M 4.140625 -6.6875 "/></g></g><g style="fill:#3d393b;fill-opacity:0.4;"><g transform="translate(159.159514, 22.403273)"><path style="stroke:none" d="M 2.140625 -8.015625 L 2.140625 -1.359375 L 4.34375 -1.359375 L 4.34375 0 L 0.578125 0 L 0.578125 -8.015625 Z M 2.140625 -8.015625 "/></g></g><g style="fill:#3d393b;fill-opacity:0.4;"><g transform="translate(166.089111, 22.403273)"><path style="stroke:none" d="M 2.140625 -8.015625 L 2.140625 0 L 0.578125 0 L 0.578125 -8.015625 Z M 2.140625 -8.015625 "/></g></g><g style="fill:#3d393b;fill-opacity:0.4;"><g transform="translate(171.445782, 22.403273)"><path style="stroke:none" d="M 5.921875 -5.890625 C 5.703125 -6.160156 5.4375 -6.367188 5.125 -6.515625 C 4.8125 -6.660156 4.492188 -6.734375 4.171875 -6.734375 C 3.484375 -6.734375 2.914062 -6.460938 2.46875 -5.921875 C 2.03125 -5.390625 1.8125 -4.738281 1.8125 -3.96875 C 1.8125 -3.21875 2.035156 -2.582031 2.484375 -2.0625 C 2.941406 -1.539062 3.5 -1.28125 4.15625 -1.28125 C 4.5 -1.28125 4.820312 -1.359375 5.125 -1.515625 C 5.4375 -1.671875 5.703125 -1.875 5.921875 -2.125 L 5.921875 -0.265625 C 5.628906 -0.117188 5.332031 -0.00390625 5.03125 0.078125 C 4.738281 0.171875 4.429688 0.21875 4.109375 0.21875 C 3.398438 0.21875 2.75 0.0351562 2.15625 -0.328125 C 1.570312 -0.691406 1.097656 -1.195312 0.734375 -1.84375 C 0.367188 -2.5 0.1875 -3.195312 0.1875 -3.9375 C 0.1875 -4.71875 0.359375 -5.4375 0.703125 -6.09375 C 1.054688 -6.757812 1.535156 -7.28125 2.140625 -7.65625 C 2.742188 -8.03125 3.410156 -8.21875 4.140625 -8.21875 C 4.460938 -8.21875 4.773438 -8.175781 5.078125 -8.09375 C 5.378906 -8.019531 5.660156 -7.90625 5.921875 -7.75 Z M 5.921875 -5.890625 "/></g></g><g style="fill:#3d393b;fill-opacity:0.4;"><g transform="translate(180.490337, 22.403273)"><path style="stroke:none" d="M 2.140625 -8.015625 L 2.140625 0 L 0.578125 0 L 0.578125 -8.015625 Z M 2.140625 -8.015625 "/></g></g><g style="fill:#3d393b;fill-opacity:0.4;"><g transform="translate(185.847007, 22.403273)"><path style="stroke:none" d="M 4.796875 -8.015625 L 4.796875 -6.65625 L 3.171875 -6.65625 L 3.171875 0 L 1.609375 0 L 1.609375 -6.65625 L 0 -6.65625 L 0 -8.015625 Z M 4.796875 -8.015625 "/></g></g><g style="fill:#3d393b;fill-opacity:0.4;"><g transform="translate(193.29737, 22.403273)"><path style="stroke:none" d="M 0.1875 -4.015625 C 0.1875 -4.828125 0.351562 -5.550781 0.6875 -6.1875 C 1.03125 -6.820312 1.503906 -7.316406 2.109375 -7.671875 C 2.710938 -8.035156 3.394531 -8.21875 4.15625 -8.21875 C 4.925781 -8.21875 5.613281 -8.03125 6.21875 -7.65625 C 6.832031 -7.289062 7.300781 -6.785156 7.625 -6.140625 C 7.957031 -5.503906 8.125 -4.796875 8.125 -4.015625 C 8.125 -3.203125 7.953125 -2.472656 7.609375 -1.828125 C 7.273438 -1.179688 6.804688 -0.675781 6.203125 -0.3125 C 5.609375 0.0390625 4.925781 0.21875 4.15625 0.21875 C 3.394531 0.21875 2.710938 0.0390625 2.109375 -0.3125 C 1.515625 -0.664062 1.046875 -1.164062 0.703125 -1.8125 C 0.359375 -2.46875 0.1875 -3.203125 0.1875 -4.015625 Z M 4.140625 -6.6875 C 3.472656 -6.6875 2.914062 -6.429688 2.46875 -5.921875 C 2.03125 -5.410156 1.8125 -4.796875 1.8125 -4.078125 C 1.8125 -3.273438 2.019531 -2.613281 2.4375 -2.09375 C 2.863281 -1.582031 3.4375 -1.328125 4.15625 -1.328125 C 4.875 -1.328125 5.441406 -1.582031 5.859375 -2.09375 C 6.285156 -2.613281 6.5 -3.273438 6.5 -4.078125 C 6.5 -4.796875 6.273438 -5.410156 5.828125 -5.921875 C 5.378906 -6.429688 4.816406 -6.6875 4.140625 -6.6875 Z M 4.140625 -6.6875 "/></g></g><g style="fill:#3d393b;fill-opacity:0.4;"><g transform="translate(204.265561, 22.403273)"><path style="stroke:none" d="M 2.734375 -8.015625 C 3.578125 -8.015625 4.222656 -7.804688 4.671875 -7.390625 C 5.128906 -6.972656 5.359375 -6.375 5.359375 -5.59375 C 5.359375 -5.03125 5.203125 -4.535156 4.890625 -4.109375 C 4.585938 -3.691406 4.203125 -3.445312 3.734375 -3.375 L 6 0 L 4.09375 0 L 2.15625 -3.234375 L 2.140625 -3.234375 L 2.140625 0 L 0.578125 0 L 0.578125 -8.015625 Z M 2.140625 -4.328125 L 2.3125 -4.328125 C 2.84375 -4.328125 3.222656 -4.425781 3.453125 -4.625 C 3.679688 -4.820312 3.796875 -5.132812 3.796875 -5.5625 C 3.796875 -5.976562 3.679688 -6.273438 3.453125 -6.453125 C 3.234375 -6.640625 2.859375 -6.734375 2.328125 -6.734375 L 2.140625 -6.734375 Z M 2.140625 -4.328125 "/></g></g><g style="fill:#3d393b;fill-opacity:0.4;"><g transform="translate(212.853124, 22.403273)"><path style="stroke:none" d="M 4.34375 -6.25 C 4.195312 -6.457031 4.023438 -6.617188 3.828125 -6.734375 C 3.628906 -6.847656 3.398438 -6.90625 3.140625 -6.90625 C 2.867188 -6.90625 2.640625 -6.816406 2.453125 -6.640625 C 2.265625 -6.460938 2.171875 -6.25 2.171875 -6 C 2.171875 -5.769531 2.265625 -5.578125 2.453125 -5.421875 C 2.640625 -5.265625 2.914062 -5.113281 3.28125 -4.96875 C 3.914062 -4.707031 4.363281 -4.457031 4.625 -4.21875 C 4.894531 -3.976562 5.082031 -3.71875 5.1875 -3.4375 C 5.289062 -3.164062 5.34375 -2.863281 5.34375 -2.53125 C 5.34375 -1.71875 5.101562 -1.054688 4.625 -0.546875 C 4.144531 -0.0351562 3.503906 0.21875 2.703125 0.21875 C 2.148438 0.21875 1.671875 0.078125 1.265625 -0.203125 C 0.859375 -0.492188 0.519531 -0.875 0.25 -1.34375 L 1.25 -2.34375 C 1.375 -2 1.566406 -1.71875 1.828125 -1.5 C 2.097656 -1.28125 2.390625 -1.171875 2.703125 -1.171875 C 2.992188 -1.171875 3.238281 -1.273438 3.4375 -1.484375 C 3.632812 -1.703125 3.734375 -1.984375 3.734375 -2.328125 C 3.734375 -2.617188 3.640625 -2.851562 3.453125 -3.03125 C 3.265625 -3.207031 2.992188 -3.367188 2.640625 -3.515625 C 1.835938 -3.816406 1.285156 -4.140625 0.984375 -4.484375 C 0.691406 -4.828125 0.546875 -5.273438 0.546875 -5.828125 C 0.546875 -6.242188 0.644531 -6.632812 0.84375 -7 C 1.039062 -7.375 1.320312 -7.671875 1.6875 -7.890625 C 2.050781 -8.109375 2.453125 -8.21875 2.890625 -8.21875 C 3.273438 -8.21875 3.679688 -8.128906 4.109375 -7.953125 C 4.546875 -7.773438 4.867188 -7.566406 5.078125 -7.328125 Z M 4.34375 -6.25 "/></g></g><g style="fill:#3d393b;fill-opacity:1;"><g transform="translate(7.363899, 21.463816)"><path style="stroke:none" d="M 2.578125 -8.21875 L 4.546875 -2.9375 L 6.4375 -8.21875 L 7.5625 -8.21875 L 8.765625 0 L 7.1875 0 L 6.5625 -4.96875 L 6.53125 -4.96875 L 4.71875 0.109375 L 4.171875 0.109375 L 2.421875 -4.96875 L 2.40625 -4.96875 L 1.6875 0 L 0.109375 0 L 1.46875 -8.21875 Z M 2.578125 -8.21875 "/></g></g><g style="fill:#3d393b;fill-opacity:1;"><g transform="translate(18.906003, 21.463816)"><path style="stroke:none" d="M 2.140625 -8.015625 L 2.140625 0 L 0.578125 0 L 0.578125 -8.015625 Z M 2.140625 -8.015625 "/></g></g><g style="fill:#3d393b;fill-opacity:1;"><g transform="translate(24.262674, 21.463816)"><path style="stroke:none" d="M 5.921875 -5.890625 C 5.703125 -6.160156 5.4375 -6.367188 5.125 -6.515625 C 4.8125 -6.660156 4.492188 -6.734375 4.171875 -6.734375 C 3.484375 -6.734375 2.914062 -6.460938 2.46875 -5.921875 C 2.03125 -5.390625 1.8125 -4.738281 1.8125 -3.96875 C 1.8125 -3.21875 2.035156 -2.582031 2.484375 -2.0625 C 2.941406 -1.539062 3.5 -1.28125 4.15625 -1.28125 C 4.5 -1.28125 4.820312 -1.359375 5.125 -1.515625 C 5.4375 -1.671875 5.703125 -1.875 5.921875 -2.125 L 5.921875 -0.265625 C 5.628906 -0.117188 5.332031 -0.00390625 5.03125 0.078125 C 4.738281 0.171875 4.429688 0.21875 4.109375 0.21875 C 3.398438 0.21875 2.75 0.0351562 2.15625 -0.328125 C 1.570312 -0.691406 1.097656 -1.195312 0.734375 -1.84375 C 0.367188 -2.5 0.1875 -3.195312 0.1875 -3.9375 C 0.1875 -4.71875 0.359375 -5.4375 0.703125 -6.09375 C 1.054688 -6.757812 1.535156 -7.28125 2.140625 -7.65625 C 2.742188 -8.03125 3.410156 -8.21875 4.140625 -8.21875 C 4.460938 -8.21875 4.773438 -8.175781 5.078125 -8.09375 C 5.378906 -8.019531 5.660156 -7.90625 5.921875 -7.75 Z M 5.921875 -5.890625 "/></g></g><g style="fill:#3d393b;fill-opacity:1;"><g transform="translate(33.307229, 21.463816)"><path style="stroke:none" d="M 2.140625 -8.015625 L 2.140625 -4.859375 L 5.03125 -4.859375 L 5.03125 -8.015625 L 6.59375 -8.015625 L 6.59375 0 L 5.03125 0 L 5.03125 -3.578125 L 2.140625 -3.578125 L 2.140625 0 L 0.578125 0 L 0.578125 -8.015625 Z M 2.140625 -8.015625 "/></g></g><g style="fill:#3d393b;fill-opacity:1;"><g transform="translate(43.127614, 21.463816)"><path style="stroke:none" d="M 4.234375 -8.21875 L 7.28125 0 L 5.609375 0 L 5 -1.6875 L 2.203125 -1.6875 L 1.546875 0 L -0.09375 0 L 3.03125 -8.21875 Z M 2.65625 -2.96875 L 4.5625 -2.96875 L 3.5625 -5.875 L 3.53125 -5.875 Z M 2.65625 -2.96875 "/></g></g><g style="fill:#3d393b;fill-opacity:1;"><g transform="translate(52.969254, 21.463816)"><path style="stroke:none" d="M 4.71875 -8.015625 L 4.71875 -6.65625 L 2.140625 -6.65625 L 2.140625 -4.890625 L 4.625 -4.890625 L 4.625 -3.53125 L 2.140625 -3.53125 L 2.140625 -1.359375 L 4.71875 -1.359375 L 4.71875 0 L 0.578125 0 L 0.578125 -8.015625 Z M 4.71875 -8.015625 "/></g></g><g style="fill:#3d393b;fill-opacity:1;"><g transform="translate(60.812858, 21.463816)"><path style="stroke:none" d="M 2.140625 -8.015625 L 2.140625 -1.359375 L 4.34375 -1.359375 L 4.34375 0 L 0.578125 0 L 0.578125 -8.015625 Z M 2.140625 -8.015625 "/></g></g><g style="fill:#3d393b;fill-opacity:1;"><g transform="translate(67.742455, 21.463816)"><path style="stroke:none" d=""/></g></g><g style="fill:#3d393b;fill-opacity:1;"><g transform="translate(73.471099, 21.463816)"><path style="stroke:none" d="M 4.34375 -6.25 C 4.195312 -6.457031 4.023438 -6.617188 3.828125 -6.734375 C 3.628906 -6.847656 3.398438 -6.90625 3.140625 -6.90625 C 2.867188 -6.90625 2.640625 -6.816406 2.453125 -6.640625 C 2.265625 -6.460938 2.171875 -6.25 2.171875 -6 C 2.171875 -5.769531 2.265625 -5.578125 2.453125 -5.421875 C 2.640625 -5.265625 2.914062 -5.113281 3.28125 -4.96875 C 3.914062 -4.707031 4.363281 -4.457031 4.625 -4.21875 C 4.894531 -3.976562 5.082031 -3.71875 5.1875 -3.4375 C 5.289062 -3.164062 5.34375 -2.863281 5.34375 -2.53125 C 5.34375 -1.71875 5.101562 -1.054688 4.625 -0.546875 C 4.144531 -0.0351562 3.503906 0.21875 2.703125 0.21875 C 2.148438 0.21875 1.671875 0.078125 1.265625 -0.203125 C 0.859375 -0.492188 0.519531 -0.875 0.25 -1.34375 L 1.25 -2.34375 C 1.375 -2 1.566406 -1.71875 1.828125 -1.5 C 2.097656 -1.28125 2.390625 -1.171875 2.703125 -1.171875 C 2.992188 -1.171875 3.238281 -1.273438 3.4375 -1.484375 C 3.632812 -1.703125 3.734375 -1.984375 3.734375 -2.328125 C 3.734375 -2.617188 3.640625 -2.851562 3.453125 -3.03125 C 3.265625 -3.207031 2.992188 -3.367188 2.640625 -3.515625 C 1.835938 -3.816406 1.285156 -4.140625 0.984375 -4.484375 C 0.691406 -4.828125 0.546875 -5.273438 0.546875 -5.828125 C 0.546875 -6.242188 0.644531 -6.632812 0.84375 -7 C 1.039062 -7.375 1.320312 -7.671875 1.6875 -7.890625 C 2.050781 -8.109375 2.453125 -8.21875 2.890625 -8.21875 C 3.273438 -8.21875 3.679688 -8.128906 4.109375 -7.953125 C 4.546875 -7.773438 4.867188 -7.566406 5.078125 -7.328125 Z M 4.34375 -6.25 "/></g></g><g style="fill:#3d393b;fill-opacity:1;"><g transform="translate(81.718559, 21.463816)"><path style="stroke:none" d="M 4.796875 -8.015625 L 4.796875 -6.65625 L 3.171875 -6.65625 L 3.171875 0 L 1.609375 0 L 1.609375 -6.65625 L 0 -6.65625 L 0 -8.015625 Z M 4.796875 -8.015625 "/></g></g><g style="fill:#3d393b;fill-opacity:1;"><g transform="translate(89.168922, 21.463816)"><path style="stroke:none" d="M 4.71875 -8.015625 L 4.71875 -6.65625 L 2.140625 -6.65625 L 2.140625 -4.890625 L 4.625 -4.890625 L 4.625 -3.53125 L 2.140625 -3.53125 L 2.140625 -1.359375 L 4.71875 -1.359375 L 4.71875 0 L 0.578125 0 L 0.578125 -8.015625 Z M 4.71875 -8.015625 "/></g></g><g style="fill:#3d393b;fill-opacity:1;"><g transform="translate(97.012525, 21.463816)"><path style="stroke:none" d="M 1.53125 -8.015625 L 3.453125 -2.609375 L 3.46875 -2.609375 L 5.265625 -8.015625 L 6.9375 -8.015625 L 3.828125 0.21875 L 2.90625 0.21875 L -0.15625 -8.015625 Z M 1.53125 -8.015625 "/></g></g><g style="fill:#3d393b;fill-opacity:1;"><g transform="translate(106.460936, 21.463816)"><path style="stroke:none" d="M 4.71875 -8.015625 L 4.71875 -6.65625 L 2.140625 -6.65625 L 2.140625 -4.890625 L 4.625 -4.890625 L 4.625 -3.53125 L 2.140625 -3.53125 L 2.140625 -1.359375 L 4.71875 -1.359375 L 4.71875 0 L 0.578125 0 L 0.578125 -8.015625 Z M 4.71875 -8.015625 "/></g></g><g style="fill:#3d393b;fill-opacity:1;"><g transform="translate(114.30454, 21.463816)"><path style="stroke:none" d="M 1.703125 -8.21875 L 5.921875 -2.625 L 5.9375 -2.625 L 5.9375 -8.015625 L 7.5 -8.015625 L 7.5 0.15625 L 6.375 0.15625 L 2.15625 -5.4375 L 2.140625 -5.4375 L 2.140625 0 L 0.578125 0 L 0.578125 -8.21875 Z M 1.703125 -8.21875 "/></g></g><g style="fill:#3d393b;fill-opacity:1;"><g transform="translate(125.028293, 21.463816)"><path style="stroke:none" d="M 4.34375 -6.25 C 4.195312 -6.457031 4.023438 -6.617188 3.828125 -6.734375 C 3.628906 -6.847656 3.398438 -6.90625 3.140625 -6.90625 C 2.867188 -6.90625 2.640625 -6.816406 2.453125 -6.640625 C 2.265625 -6.460938 2.171875 -6.25 2.171875 -6 C 2.171875 -5.769531 2.265625 -5.578125 2.453125 -5.421875 C 2.640625 -5.265625 2.914062 -5.113281 3.28125 -4.96875 C 3.914062 -4.707031 4.363281 -4.457031 4.625 -4.21875 C 4.894531 -3.976562 5.082031 -3.71875 5.1875 -3.4375 C 5.289062 -3.164062 5.34375 -2.863281 5.34375 -2.53125 C 5.34375 -1.71875 5.101562 -1.054688 4.625 -0.546875 C 4.144531 -0.0351562 3.503906 0.21875 2.703125 0.21875 C 2.148438 0.21875 1.671875 0.078125 1.265625 -0.203125 C 0.859375 -0.492188 0.519531 -0.875 0.25 -1.34375 L 1.25 -2.34375 C 1.375 -2 1.566406 -1.71875 1.828125 -1.5 C 2.097656 -1.28125 2.390625 -1.171875 2.703125 -1.171875 C 2.992188 -1.171875 3.238281 -1.273438 3.4375 -1.484375 C 3.632812 -1.703125 3.734375 -1.984375 3.734375 -2.328125 C 3.734375 -2.617188 3.640625 -2.851562 3.453125 -3.03125 C 3.265625 -3.207031 2.992188 -3.367188 2.640625 -3.515625 C 1.835938 -3.816406 1.285156 -4.140625 0.984375 -4.484375 C 0.691406 -4.828125 0.546875 -5.273438 0.546875 -5.828125 C 0.546875 -6.242188 0.644531 -6.632812 0.84375 -7 C 1.039062 -7.375 1.320312 -7.671875 1.6875 -7.890625 C 2.050781 -8.109375 2.453125 -8.21875 2.890625 -8.21875 C 3.273438 -8.21875 3.679688 -8.128906 4.109375 -7.953125 C 4.546875 -7.773438 4.867188 -7.566406 5.078125 -7.328125 Z M 4.34375 -6.25 "/></g></g><g style="fill:#3d393b;fill-opacity:1;"><g transform="translate(133.275752, 21.463816)"><path style="stroke:none" d=""/></g></g><g style="fill:#3d393b;fill-opacity:1;"><g transform="translate(139.004397, 21.463816)"><path style="stroke:none" d="M 4.34375 -6.25 C 4.195312 -6.457031 4.023438 -6.617188 3.828125 -6.734375 C 3.628906 -6.847656 3.398438 -6.90625 3.140625 -6.90625 C 2.867188 -6.90625 2.640625 -6.816406 2.453125 -6.640625 C 2.265625 -6.460938 2.171875 -6.25 2.171875 -6 C 2.171875 -5.769531 2.265625 -5.578125 2.453125 -5.421875 C 2.640625 -5.265625 2.914062 -5.113281 3.28125 -4.96875 C 3.914062 -4.707031 4.363281 -4.457031 4.625 -4.21875 C 4.894531 -3.976562 5.082031 -3.71875 5.1875 -3.4375 C 5.289062 -3.164062 5.34375 -2.863281 5.34375 -2.53125 C 5.34375 -1.71875 5.101562 -1.054688 4.625 -0.546875 C 4.144531 -0.0351562 3.503906 0.21875 2.703125 0.21875 C 2.148438 0.21875 1.671875 0.078125 1.265625 -0.203125 C 0.859375 -0.492188 0.519531 -0.875 0.25 -1.34375 L 1.25 -2.34375 C 1.375 -2 1.566406 -1.71875 1.828125 -1.5 C 2.097656 -1.28125 2.390625 -1.171875 2.703125 -1.171875 C 2.992188 -1.171875 3.238281 -1.273438 3.4375 -1.484375 C 3.632812 -1.703125 3.734375 -1.984375 3.734375 -2.328125 C 3.734375 -2.617188 3.640625 -2.851562 3.453125 -3.03125 C 3.265625 -3.207031 2.992188 -3.367188 2.640625 -3.515625 C 1.835938 -3.816406 1.285156 -4.140625 0.984375 -4.484375 C 0.691406 -4.828125 0.546875 -5.273438 0.546875 -5.828125 C 0.546875 -6.242188 0.644531 -6.632812 0.84375 -7 C 1.039062 -7.375 1.320312 -7.671875 1.6875 -7.890625 C 2.050781 -8.109375 2.453125 -8.21875 2.890625 -8.21875 C 3.273438 -8.21875 3.679688 -8.128906 4.109375 -7.953125 C 4.546875 -7.773438 4.867188 -7.566406 5.078125 -7.328125 Z M 4.34375 -6.25 "/></g></g><g style="fill:#3d393b;fill-opacity:1;"><g transform="translate(147.251856, 21.463816)"><path style="stroke:none" d="M 0.1875 -4.015625 C 0.1875 -4.828125 0.351562 -5.550781 0.6875 -6.1875 C 1.03125 -6.820312 1.503906 -7.316406 2.109375 -7.671875 C 2.710938 -8.035156 3.394531 -8.21875 4.15625 -8.21875 C 4.925781 -8.21875 5.613281 -8.03125 6.21875 -7.65625 C 6.832031 -7.289062 7.300781 -6.785156 7.625 -6.140625 C 7.957031 -5.503906 8.125 -4.796875 8.125 -4.015625 C 8.125 -3.203125 7.953125 -2.472656 7.609375 -1.828125 C 7.273438 -1.179688 6.804688 -0.675781 6.203125 -0.3125 C 5.609375 0.0390625 4.925781 0.21875 4.15625 0.21875 C 3.394531 0.21875 2.710938 0.0390625 2.109375 -0.3125 C 1.515625 -0.664062 1.046875 -1.164062 0.703125 -1.8125 C 0.359375 -2.46875 0.1875 -3.203125 0.1875 -4.015625 Z M 4.140625 -6.6875 C 3.472656 -6.6875 2.914062 -6.429688 2.46875 -5.921875 C 2.03125 -5.410156 1.8125 -4.796875 1.8125 -4.078125 C 1.8125 -3.273438 2.019531 -2.613281 2.4375 -2.09375 C 2.863281 -1.582031 3.4375 -1.328125 4.15625 -1.328125 C 4.875 -1.328125 5.441406 -1.582031 5.859375 -2.09375 C 6.285156 -2.613281 6.5 -3.273438 6.5 -4.078125 C 6.5 -4.796875 6.273438 -5.410156 5.828125 -5.921875 C 5.378906 -6.429688 4.816406 -6.6875 4.140625 -6.6875 Z M 4.140625 -6.6875 "/></g></g><g style="fill:#3d393b;fill-opacity:1;"><g transform="translate(158.220058, 21.463816)"><path style="stroke:none" d="M 2.140625 -8.015625 L 2.140625 -1.359375 L 4.34375 -1.359375 L 4.34375 0 L 0.578125 0 L 0.578125 -8.015625 Z M 2.140625 -8.015625 "/></g></g><g style="fill:#3d393b;fill-opacity:1;"><g transform="translate(165.149655, 21.463816)"><path style="stroke:none" d="M 2.140625 -8.015625 L 2.140625 0 L 0.578125 0 L 0.578125 -8.015625 Z M 2.140625 -8.015625 "/></g></g><g style="fill:#3d393b;fill-opacity:1;"><g transform="translate(170.506325, 21.463816)"><path style="stroke:none" d="M 5.921875 -5.890625 C 5.703125 -6.160156 5.4375 -6.367188 5.125 -6.515625 C 4.8125 -6.660156 4.492188 -6.734375 4.171875 -6.734375 C 3.484375 -6.734375 2.914062 -6.460938 2.46875 -5.921875 C 2.03125 -5.390625 1.8125 -4.738281 1.8125 -3.96875 C 1.8125 -3.21875 2.035156 -2.582031 2.484375 -2.0625 C 2.941406 -1.539062 3.5 -1.28125 4.15625 -1.28125 C 4.5 -1.28125 4.820312 -1.359375 5.125 -1.515625 C 5.4375 -1.671875 5.703125 -1.875 5.921875 -2.125 L 5.921875 -0.265625 C 5.628906 -0.117188 5.332031 -0.00390625 5.03125 0.078125 C 4.738281 0.171875 4.429688 0.21875 4.109375 0.21875 C 3.398438 0.21875 2.75 0.0351562 2.15625 -0.328125 C 1.570312 -0.691406 1.097656 -1.195312 0.734375 -1.84375 C 0.367188 -2.5 0.1875 -3.195312 0.1875 -3.9375 C 0.1875 -4.71875 0.359375 -5.4375 0.703125 -6.09375 C 1.054688 -6.757812 1.535156 -7.28125 2.140625 -7.65625 C 2.742188 -8.03125 3.410156 -8.21875 4.140625 -8.21875 C 4.460938 -8.21875 4.773438 -8.175781 5.078125 -8.09375 C 5.378906 -8.019531 5.660156 -7.90625 5.921875 -7.75 Z M 5.921875 -5.890625 "/></g></g><g style="fill:#3d393b;fill-opacity:1;"><g transform="translate(179.550881, 21.463816)"><path style="stroke:none" d="M 2.140625 -8.015625 L 2.140625 0 L 0.578125 0 L 0.578125 -8.015625 Z M 2.140625 -8.015625 "/></g></g><g style="fill:#3d393b;fill-opacity:1;"><g transform="translate(184.907551, 21.463816)"><path style="stroke:none" d="M 4.796875 -8.015625 L 4.796875 -6.65625 L 3.171875 -6.65625 L 3.171875 0 L 1.609375 0 L 1.609375 -6.65625 L 0 -6.65625 L 0 -8.015625 Z M 4.796875 -8.015625 "/></g></g><g style="fill:#3d393b;fill-opacity:1;"><g transform="translate(192.357914, 21.463816)"><path style="stroke:none" d="M 0.1875 -4.015625 C 0.1875 -4.828125 0.351562 -5.550781 0.6875 -6.1875 C 1.03125 -6.820312 1.503906 -7.316406 2.109375 -7.671875 C 2.710938 -8.035156 3.394531 -8.21875 4.15625 -8.21875 C 4.925781 -8.21875 5.613281 -8.03125 6.21875 -7.65625 C 6.832031 -7.289062 7.300781 -6.785156 7.625 -6.140625 C 7.957031 -5.503906 8.125 -4.796875 8.125 -4.015625 C 8.125 -3.203125 7.953125 -2.472656 7.609375 -1.828125 C 7.273438 -1.179688 6.804688 -0.675781 6.203125 -0.3125 C 5.609375 0.0390625 4.925781 0.21875 4.15625 0.21875 C 3.394531 0.21875 2.710938 0.0390625 2.109375 -0.3125 C 1.515625 -0.664062 1.046875 -1.164062 0.703125 -1.8125 C 0.359375 -2.46875 0.1875 -3.203125 0.1875 -4.015625 Z M 4.140625 -6.6875 C 3.472656 -6.6875 2.914062 -6.429688 2.46875 -5.921875 C 2.03125 -5.410156 1.8125 -4.796875 1.8125 -4.078125 C 1.8125 -3.273438 2.019531 -2.613281 2.4375 -2.09375 C 2.863281 -1.582031 3.4375 -1.328125 4.15625 -1.328125 C 4.875 -1.328125 5.441406 -1.582031 5.859375 -2.09375 C 6.285156 -2.613281 6.5 -3.273438 6.5 -4.078125 C 6.5 -4.796875 6.273438 -5.410156 5.828125 -5.921875 C 5.378906 -6.429688 4.816406 -6.6875 4.140625 -6.6875 Z M 4.140625 -6.6875 "/></g></g><g style="fill:#3d393b;fill-opacity:1;"><g transform="translate(203.326105, 21.463816)"><path style="stroke:none" d="M 2.734375 -8.015625 C 3.578125 -8.015625 4.222656 -7.804688 4.671875 -7.390625 C 5.128906 -6.972656 5.359375 -6.375 5.359375 -5.59375 C 5.359375 -5.03125 5.203125 -4.535156 4.890625 -4.109375 C 4.585938 -3.691406 4.203125 -3.445312 3.734375 -3.375 L 6 0 L 4.09375 0 L 2.15625 -3.234375 L 2.140625 -3.234375 L 2.140625 0 L 0.578125 0 L 0.578125 -8.015625 Z M 2.140625 -4.328125 L 2.3125 -4.328125 C 2.84375 -4.328125 3.222656 -4.425781 3.453125 -4.625 C 3.679688 -4.820312 3.796875 -5.132812 3.796875 -5.5625 C 3.796875 -5.976562 3.679688 -6.273438 3.453125 -6.453125 C 3.234375 -6.640625 2.859375 -6.734375 2.328125 -6.734375 L 2.140625 -6.734375 Z M 2.140625 -4.328125 "/></g></g><g style="fill:#3d393b;fill-opacity:1;"><g transform="translate(211.913668, 21.463816)"><path style="stroke:none" d="M 4.34375 -6.25 C 4.195312 -6.457031 4.023438 -6.617188 3.828125 -6.734375 C 3.628906 -6.847656 3.398438 -6.90625 3.140625 -6.90625 C 2.867188 -6.90625 2.640625 -6.816406 2.453125 -6.640625 C 2.265625 -6.460938 2.171875 -6.25 2.171875 -6 C 2.171875 -5.769531 2.265625 -5.578125 2.453125 -5.421875 C 2.640625 -5.265625 2.914062 -5.113281 3.28125 -4.96875 C 3.914062 -4.707031 4.363281 -4.457031 4.625 -4.21875 C 4.894531 -3.976562 5.082031 -3.71875 5.1875 -3.4375 C 5.289062 -3.164062 5.34375 -2.863281 5.34375 -2.53125 C 5.34375 -1.71875 5.101562 -1.054688 4.625 -0.546875 C 4.144531 -0.0351562 3.503906 0.21875 2.703125 0.21875 C 2.148438 0.21875 1.671875 0.078125 1.265625 -0.203125 C 0.859375 -0.492188 0.519531 -0.875 0.25 -1.34375 L 1.25 -2.34375 C 1.375 -2 1.566406 -1.71875 1.828125 -1.5 C 2.097656 -1.28125 2.390625 -1.171875 2.703125 -1.171875 C 2.992188 -1.171875 3.238281 -1.273438 3.4375 -1.484375 C 3.632812 -1.703125 3.734375 -1.984375 3.734375 -2.328125 C 3.734375 -2.617188 3.640625 -2.851562 3.453125 -3.03125 C 3.265625 -3.207031 2.992188 -3.367188 2.640625 -3.515625 C 1.835938 -3.816406 1.285156 -4.140625 0.984375 -4.484375 C 0.691406 -4.828125 0.546875 -5.273438 0.546875 -5.828125 C 0.546875 -6.242188 0.644531 -6.632812 0.84375 -7 C 1.039062 -7.375 1.320312 -7.671875 1.6875 -7.890625 C 2.050781 -8.109375 2.453125 -8.21875 2.890625 -8.21875 C 3.273438 -8.21875 3.679688 -8.128906 4.109375 -7.953125 C 4.546875 -7.773438 4.867188 -7.566406 5.078125 -7.328125 Z M 4.34375 -6.25 "/></g></g></g></svg>