<svg width="135" height="46" viewBox="0 0 135 46" fill="none" xmlns="http://www.w3.org/2000/svg">
	<g clip-path="url(#clip0_993_4901)">
		<path d="M14.9055 20.6755C15.1629 20.0267 15.3827 19.3838 15.6447 18.9307C15.9984 18.321 16.429 18.318 17.123 18.5122V16.5626C16.4892 16.5626 16.143 16.8185 15.6447 17.505C15.3812 17.8679 14.758 18.5468 14.1543 19.1972C14.4855 19.6639 14.7339 20.1546 14.904 20.6755" fill="#004E72"/>
		<path d="M15.0726 35.0828C14.1573 34.6884 13.1802 34.1163 13.1802 33.4975C13.1802 32.3986 14.5668 31.5028 14.5668 29.6631C14.5668 27.688 12.4501 26.9398 10.3169 28.1517C10.6917 28.7855 10.9522 29.6857 10.9522 30.2443C10.9522 30.6297 10.8799 30.997 10.764 31.3508C11.5303 31.4456 12.1219 31.8701 12.1219 32.2887C12.1219 32.9074 11.6658 33.3259 11.4354 34.0365C12.4651 34.4625 13.4557 35.1114 14.8302 36.4317C15.7786 36.1727 15.6838 36.933 15.7711 37.4629H17.5009C17.4316 35.968 16.2484 35.5931 15.0726 35.0843" fill="#004E72"/>
		<path d="M10.6872 34.7862C10.2687 34.5047 9.80501 34.3195 9.24047 34.1901C8.94389 34.7561 8.7256 35.3342 8.6985 35.9695C9.82157 35.9274 10.7339 35.8686 11.5137 35.9289C11.169 35.6067 10.5984 35.2499 9.90588 35.1626C10.1723 35.003 10.4298 34.8796 10.6872 34.7877" fill="#004E72"/>
		<path d="M38.9461 22.0952C39.0439 21.2161 39.3781 20.5055 39.7274 19.9846L38.365 19.14C38.0865 18.9684 38.0262 18.7531 38.0262 18.4656C38.0262 18.154 38.1241 17.7927 38.1241 17.466C38.1241 16.8442 37.5686 16.5642 36.9167 16.5642V19.8837C37.4557 20.6259 38.1723 21.3756 38.9461 22.0937" fill="#004E72"/>
		<path d="M3.84944 20.1788C3.31199 20.504 2.0173 20.5536 0.709063 20.364C0.96499 20.9962 1.29318 21.5548 1.69363 22.0109C2.83928 22.0109 3.91116 21.7866 4.59313 21.4584C4.76475 21.3756 4.92132 21.5066 4.73464 21.6918C4.34774 22.0757 3.35565 22.3798 2.24161 22.5288C2.84831 23 3.58899 23.2725 4.46667 23.2725C6.8212 23.2725 7.14036 21.329 6.6541 20.1938C6.28075 19.3237 5.69211 17.7505 5.69211 16.2706C5.69211 15.4185 5.87578 14.6312 6.14826 14.0109C4.89121 12.6666 3.89009 10.2187 3.43243 7.90332C2.75046 8.26011 2.16032 8.86832 1.66804 9.64212C2.05042 11.1536 2.94316 13.0173 3.84342 14.0471C4.03461 14.2654 3.95482 14.5409 3.57996 14.2714C2.82422 13.7324 1.79148 11.9861 1.20436 10.4852C0.847565 11.2289 0.566045 12.0704 0.364314 12.9601C1.13812 14.5123 2.41926 15.9108 3.4249 16.4513C3.59351 16.5431 3.53329 16.7268 3.32554 16.7177C2.55174 16.6786 1.11704 15.3463 0.180649 13.9251C0.0331147 14.8691 -0.0255979 15.8446 0.0105329 16.7915C1.1321 17.6331 2.39517 18.2021 3.29844 18.3361C3.48813 18.3647 3.55738 18.5348 3.29844 18.583C2.64206 18.7049 1.28565 18.2578 0.0647293 17.5698C0.136991 18.3196 0.273987 19.0407 0.477223 19.7046C1.71471 20.0313 2.95972 20.0885 3.77718 19.9108C3.96385 19.8702 4.07375 20.0448 3.85094 20.1803" fill="#004E72"/>
		<path d="M43.2216 29.6571C42.6871 28.945 41.8697 28.4979 40.8941 28.4979C39.7334 28.4979 38.5908 29.2672 38.5908 31.0903C38.5908 32.5446 39.7154 33.3786 39.7154 34.4249C39.7154 35.1159 39.1689 36.2043 38.5787 36.2043C38.1663 36.2043 37.9525 35.9469 37.4271 35.9469C36.7918 35.9469 36.3311 36.2841 36.0646 37.4614H39.8644C40.1399 36.4813 41.0341 34.7636 42.3725 33.8739C41.9781 33.0625 41.5415 30.7501 43.2216 29.6571Z" fill="#004E72"/>
		<path d="M32.1761 6.14795L31.6416 6.09074L31.5543 0.434754C31.5543 0.269154 31.485 0.126136 31.3977 0.0568848C31.3104 0.126136 31.2412 0.269154 31.2412 0.434754L31.1523 6.09074L30.6194 6.14795V6.42947H32.1745V6.14795H32.1761Z" fill="#004E72"/>
		<path d="M27.8629 1.86048C27.8313 1.37723 27.619 0.874407 27.0199 1.02495C26.4207 0.874407 26.2084 1.37723 26.1768 1.86048C26.3846 1.80177 26.6857 1.76413 27.0199 1.76413C27.3541 1.76413 27.6552 1.80177 27.8629 1.86048Z" fill="#004E72"/>
		<path d="M26.0594 3.6233C26.1542 4.00719 26.4659 4.45732 27.0199 4.45732C27.5739 4.45732 27.8855 4.00568 27.9804 3.62179C27.6687 3.55254 27.4986 3.37791 27.4414 3.11446C27.6537 3.11446 27.8629 3.10392 28.0617 3.0708C27.9126 2.87509 27.8629 2.56647 27.8629 2.24731C27.6552 2.30603 27.3541 2.34366 27.0214 2.34366C26.6887 2.34366 26.3876 2.30603 26.1798 2.24731C26.1798 2.56647 26.1302 2.87509 25.9796 3.0708C26.1783 3.10241 26.3891 3.11295 26.6014 3.11446C26.5427 3.37791 26.3725 3.55555 26.0609 3.6233" fill="#004E72"/>
		<path d="M21.7854 5.40127H21.9616C22.1512 5.40127 22.2928 5.14384 22.4132 4.86383C23.047 4.86985 23.5709 5.14234 23.9683 5.1604C24.6307 5.1604 25.1561 4.67565 25.5024 4.56274C25.5415 4.73586 25.531 4.90749 25.531 5.1875C25.531 5.82882 26.0549 6.25938 26.1678 6.87511C25.9841 7.01361 25.4512 7.18674 25.0809 8.57929C24.2845 11.5646 22.5201 14.7005 21.3278 15.4968H25.2841C26.4433 15.4968 28.0496 15.0919 29.1064 13.2718C29.269 14.1314 29.4677 15.0618 29.6183 15.4968H32.712C31.9427 14.9925 30.7805 13.2281 29.8848 11.1822C30.0639 10.3407 30.1843 9.192 30.1904 8.18937C30.1904 7.88226 30.1813 7.59321 30.1633 7.31922C30.508 7.4246 30.8949 7.5059 31.2306 7.52848C31.1343 7.58719 31.0695 7.69257 31.0695 7.81452C31.0695 8.00119 31.2201 8.15174 31.4068 8.15174C31.5934 8.15174 31.744 8.00119 31.744 7.81452C31.744 7.68203 31.6672 7.56913 31.5573 7.51342C31.8885 7.41557 31.8433 6.98652 31.8057 6.78629C31.6898 6.75618 31.2788 6.73962 31.1343 6.79833C31.0153 6.84651 30.9702 6.93985 30.8633 6.95039C30.5818 6.95039 30.2882 6.71855 30.0639 6.39337C29.7929 4.68468 29.111 3.81152 28.2288 3.66097C27.9216 4.73887 27.4173 5.29288 27.0214 5.29288C26.6254 5.29288 26.1196 4.73887 25.814 3.65796C25.2675 3.73022 24.9845 3.92593 24.1565 4.50854C23.6733 4.44983 23.0003 4.39413 22.4644 4.40015C22.2009 4.40015 21.6529 4.79759 21.5476 4.95867V5.12427C21.5476 5.2989 21.5822 5.39826 21.7869 5.39826L21.7854 5.40127ZM28.3462 5.81979C28.8595 6.17809 29.2058 7.70462 29.0402 8.86833C29.0116 8.77048 28.986 8.67262 28.9589 8.57477C28.5871 7.18223 28.0556 7.0091 27.872 6.8706C27.9442 6.47918 28.1806 6.16153 28.3462 5.81979Z" fill="#004E72"/>
		<path d="M18.1136 29.5818C18.1136 33.9672 23.0921 36.942 27.0199 39.1987C30.9476 36.942 35.9261 33.9672 35.9261 29.5818V16.5657H18.1136V29.5818ZM34.3876 18.1042V26.3737H27.6296L27.4534 18.9849L27.2653 18.1058H34.3876V18.1042ZM19.6537 18.1042H26.7745L26.5878 18.9834L26.4117 26.3722H19.6537V18.1027V18.1042ZM19.6537 28.7598H26.3545L26.2566 32.8742L24.6277 33.0534L24.5208 33.5863L26.237 33.7489H27.8027L29.5189 33.5863L29.412 33.0534L27.7846 32.8742L27.6853 28.7598H34.3861V29.5818C34.3861 31.0767 33.5761 32.5385 31.9111 34.0485C30.6555 35.1866 29.123 36.1787 27.4896 37.1437V34.7666L27.9277 34.6085V34.2608H26.1076V34.6085L26.5457 34.7666V37.1437C24.9137 36.1787 23.3812 35.1866 22.1256 34.0485C20.4606 32.5385 19.6507 31.0782 19.6507 29.5818V28.7598H19.6537Z" fill="#004E72"/>
		<path d="M23.3255 21.1393C23.3255 21.4825 23.5844 21.6376 23.9442 21.6376C24.3447 21.6376 24.6909 21.5412 25.0763 21.5412C25.3428 21.5412 25.4587 21.6316 25.4587 21.7716C25.4587 21.9477 25.1546 22.0124 24.8897 22.0124C24.6247 22.0124 24.4877 21.9748 24.1595 21.9748C23.9593 21.9748 23.6778 22.029 23.3029 22.1314C22.8889 22.2473 22.8708 21.88 22.8708 21.3199C22.8708 20.6756 22.5667 20.3835 22.0338 20.3835C21.9059 20.3835 21.7899 20.4076 21.6876 20.4483C21.54 20.647 21.4211 20.6711 21.2705 20.7433C21.2224 20.7674 21.2796 20.8924 21.2796 20.8924C21.0809 20.9616 20.9725 21.1047 20.9725 21.1047C20.9619 21.2913 21.0493 21.344 21.1622 21.3711C21.1908 21.3199 21.2254 21.2778 21.2992 21.2552C21.3865 21.2281 21.4949 21.2341 21.522 21.3214C21.5476 21.3997 21.4949 21.4855 21.4136 21.5202C21.3278 21.5563 21.2359 21.5578 21.1847 21.5217C21.126 21.7174 21.3157 21.9206 21.3157 21.9206C21.4422 21.7114 21.7327 21.6737 21.7327 21.8589C21.7327 22.0546 21.5671 22.2006 21.5792 22.4475C21.0191 22.3738 20.5464 22.1961 20.5464 22.0531C20.5464 21.9748 20.6006 21.8468 20.6006 21.74C20.6006 21.5111 20.4155 21.3907 20.2649 21.4931V22.3738C20.5961 22.446 21.0312 22.7366 21.2058 23.1521C21.5159 23.0181 21.6921 23.134 21.6921 23.3086C21.6921 23.5149 21.3789 23.9906 21.2058 23.9906C21.1275 23.9906 20.989 23.9304 20.8867 23.9304C20.7301 23.9304 20.6202 24.0855 20.6533 24.2706H21.5355C22.1422 23.5525 22.7625 23.2665 23.3556 23.0663C23.2322 23.5028 23.6522 23.6413 24.012 23.6699C23.8614 23.8009 23.741 24.0358 23.6808 24.0358C23.6025 24.0358 23.5182 23.9816 23.4339 23.9816C23.2864 23.9816 23.19 24.1156 23.1855 24.2556H24.015C24.0677 24.0839 24.2815 23.7603 24.4501 23.6639C24.2544 23.5179 24.1189 23.1491 24.3929 22.9579C24.4606 23.2936 24.9137 23.4125 25.272 23.405C25.3609 23.5585 25.5039 24.0313 25.3187 24.0313C25.2465 24.0313 25.1426 23.9831 25.0718 23.9831C24.9454 23.9831 24.8084 24.1291 24.8294 24.2631H25.7041L25.7297 23.0919C25.2555 23.0045 24.7993 22.7185 24.8038 22.3181C25.528 22.3105 25.7839 22.0636 25.7839 21.7595C25.7839 21.4389 25.4678 21.2703 25.0613 21.2703C24.712 21.2703 24.3417 21.3726 23.9367 21.3726C23.7862 21.3726 23.6416 21.2883 23.6416 21.1378C23.6416 20.9391 23.8539 20.7915 24.1731 20.7915H24.6849C24.8611 20.9646 25.0477 20.9902 25.2239 20.9902C25.5189 20.9902 25.7929 20.8036 25.9465 20.5567H24.0707C23.6627 20.5567 23.321 20.7945 23.321 21.1378" fill="#004E72"/>
		<path d="M28.9167 22.7561C29.1727 22.6703 29.2976 22.8073 29.2976 22.9955C29.2976 23.2092 29.2043 23.4697 28.8716 23.5856C28.8896 23.7376 28.8083 24.0101 28.6623 24.0101C28.5901 24.0101 28.5389 23.9906 28.4711 23.9906C28.3402 23.9906 28.2257 24.0237 28.2016 24.263H29.2675C29.0131 23.7632 30.3018 22.8886 31.2517 22.8509C30.8437 23.006 30.5592 23.6127 31.4429 23.6699C31.479 23.8475 31.3315 24.0011 31.1779 24.0011C31.1012 24.0011 31.0409 23.977 30.9491 23.977C30.7925 23.977 30.6856 24.0583 30.6676 24.263H31.5332C31.5904 24.1215 31.741 23.9409 31.8765 23.8746C31.7334 23.7708 31.6597 23.4456 31.8479 23.1279C31.9728 23.6443 32.3913 23.9168 32.8475 23.6744C32.8791 23.8506 32.7948 24.0282 32.6834 24.0282C32.6096 24.0282 32.5494 24.0041 32.4365 24.0041C32.3236 24.0041 32.2197 24.0658 32.2197 24.263H33.0688C33.1727 24.102 33.2043 23.7843 33.1937 23.4667C32.7933 23.4576 32.4621 23.3101 32.5449 22.857C32.6969 22.9202 32.8369 22.9699 33.0537 22.9699C33.5129 22.9699 33.6424 22.6974 33.6424 22.5107C33.6424 22.0621 33.0748 21.8513 33.0748 21.5939C33.0748 21.478 33.2344 21.4117 33.4978 21.4704L33.4753 21.7233L34.0503 21.4584C33.8787 21.2657 33.7327 21.1422 33.537 21.0143L33.5174 21.2431C33.1847 21.1799 32.7873 21.2627 32.7873 21.5999C32.7873 21.9657 33.3307 22.2126 33.3307 22.4821C33.3307 22.6116 33.2148 22.6838 33.0372 22.6838C32.6578 22.6838 32.2197 22.1208 31.4519 22.1434C31.8012 22.0169 32.0406 21.7279 32.1941 21.4885C32.4922 21.0278 32.861 20.8652 33.3307 20.8743C32.8761 20.6274 32.3808 20.534 31.9412 20.534C31.2111 20.534 30.7067 20.8532 30.7067 21.2205C30.7067 21.3741 30.773 21.5412 30.773 21.6917C30.773 21.8769 30.6841 22.0847 30.4297 22.0847C30.228 22.0847 30.1377 21.8784 30.1482 21.5864C30.4749 21.3124 30.5155 20.9676 30.4568 20.7403C30.5757 20.6274 30.7158 20.4241 30.6962 20.2089C30.4824 20.4798 29.8637 20.3549 29.6424 20.3549C29.4452 20.3549 29.3232 20.4512 29.3503 20.5762C29.1621 20.6424 28.9755 20.6605 28.7617 20.6364C28.703 20.7358 28.7511 20.9285 28.8505 20.9827C29.0552 20.8818 29.5069 20.8261 29.5069 20.9721C29.5069 21.067 29.3518 21.1332 28.8972 21.1332C28.8354 21.2476 28.8927 21.4253 29.0221 21.5186C29.126 21.3109 29.5611 21.2145 29.5611 21.4659C29.5611 21.6767 29.3051 21.7158 29.272 22.1027C28.6849 22.1539 28.3642 21.9386 28.3642 21.6405C28.3642 21.5201 28.3838 21.4539 28.3808 21.3831C28.3748 21.219 28.3356 21.1061 28.0827 21.1829L28.1113 22.3797C28.2814 22.2201 28.5615 22.181 28.9137 22.7591" fill="#004E72"/>
		<path d="M9.9631 30.2427C9.9631 29.5472 9.56566 28.5957 8.7768 28.0854C10.2943 27.0105 12.3824 26.5619 13.4708 25.0399C12.822 24.8381 12.2664 24.522 11.875 24.3007C12.5736 24.3775 14.2025 24.3775 15.6838 23.6112C15.9578 23.8701 16.4064 24.9631 16.283 25.3184C16.1595 25.6722 15.8374 25.8408 15.2382 26.0877C14.9928 26.6251 15.2231 28.1306 16.0843 28.1622C16.3929 27.6548 16.7602 27.0557 16.9288 26.5333C17.0192 26.2518 17.1275 25.4719 17.1275 24.1953C17.1275 22.6432 16.4531 22.4279 15.5152 22.2126L14.1633 21.9085C13.8156 18.7441 10.7158 18.1118 10.3395 16.1457C10.8332 16.6545 11.8554 16.102 12.3869 16.102C12.8054 16.102 13.0734 16.5612 13.4437 16.5612C13.7011 16.5612 13.9902 16.3715 14.1738 16.1743C14.0173 15.828 13.3233 16.0674 13.3233 15.7618C13.3233 15.6714 13.4121 15.6007 13.5325 15.6007C13.7719 15.6007 14.0865 15.7798 14.3545 15.6895C14.5005 15.5088 14.5367 14.9127 13.8366 14.4611L11.2006 12.7599C10.8167 12.5115 10.2341 12.3926 9.61684 12.4648C9.11553 12.1246 8.78131 11.7708 8.46517 11.262C8.20473 11.5932 8.15204 12.3293 8.29957 12.9255C7.41286 13.4825 6.69927 14.5604 6.69927 16.3594C6.69927 18.6026 7.87353 19.7196 7.87353 21.0971C7.87353 24.1652 4.45013 24.9255 4.45013 27.7572C4.45013 30.589 7.53329 30.6417 6.7625 33.8874C2.57584 33.4057 2.3169 30.1584 4.32367 28.4603C2.7595 28.7644 1.63794 30.2803 1.63794 31.7482C1.63794 34.1539 3.56793 35.8912 6.72336 35.9966C6.84079 37.0489 6.67519 38.3119 6.63303 38.7169C7.315 38.6462 7.29092 39.3281 7.22468 40.132H9.14413C9.18327 38.4836 7.70943 39.0075 7.70943 36.0989C7.70943 33.6164 9.96611 32.0252 9.96611 30.2412L9.9631 30.2427ZM10.6902 13.5548C11.0545 13.5548 11.3842 13.8784 11.5649 14.2939C11.0621 14.1359 10.6436 14.0636 10.1528 14.0651C10.2281 13.7113 10.4795 13.5548 10.6902 13.5548ZM2.4268 31.0376C2.59691 32.6936 3.8916 34.4294 6.42528 34.9171C4.12344 35.3703 1.85623 33.2446 2.4268 31.0376Z" fill="#004E72"/>
		<path d="M48.322 25.3379C48.322 24.8381 48.6984 24.7102 49.1184 24.8186C49.8832 25.9702 51.7861 25.7278 52.0194 25.0173C51.2818 24.9571 50.7744 23.6307 49.9148 23.6307C49.701 23.6307 49.4737 23.7437 49.2283 24.0086C48.1113 23.8024 47.3209 24.4271 47.3209 25.2852C47.3209 27.7226 51.3766 27.575 51.3766 29.5999C51.3766 30.5317 50.928 31.0692 50.0503 31.0692C48.2558 31.0692 45.9208 27.4968 45.9208 24.9465C45.9208 24.0342 46.0398 23.3282 46.2596 22.7711C48.0586 21.4644 50.4914 20.0327 50.4914 17.0323C50.4914 13.63 47.5256 11.4306 44.164 12.2345C43.9201 12.8908 43.1598 13.4132 42.4944 13.8031C42.2852 13.9251 42.3078 14.1599 42.4357 14.455C41.6679 14.6974 41.0311 15.0467 40.8279 15.1912C40.8279 15.283 40.8851 15.4576 41.0733 15.5992C41.004 16.1486 41.3096 16.516 41.552 16.5943C41.6604 16.4106 41.8712 16.2375 42.1437 16.1306C42.6134 15.9484 43.0846 16.0357 43.1975 16.3248C43.3104 16.6138 43.0213 16.9977 42.5531 17.1799C42.2701 17.2913 41.9856 17.3033 41.7793 17.2311C41.5038 17.6646 41.9103 18.3782 42.1437 18.4866C42.7925 17.7474 44.1263 17.6646 44.1263 18.1494C44.1263 19.1565 40.0676 18.5273 39.8328 22.9021L38.5306 22.5935C37.6469 22.3842 36.9137 23.6654 36.9137 24.385C36.9137 25.0263 37.421 25.4268 38.0052 25.4584C38.1798 25.1558 38.3529 24.793 38.514 24.4166L40.5193 25.9401C41.2931 26.5287 42.3574 26.6567 42.9747 25.9491C42.8783 26.4399 42.5546 27.1023 42.0232 27.4666C42.0262 27.4697 42.0292 27.4727 42.0323 27.4742C42.8919 28.2118 43.9547 28.811 44.7902 29.8618C43.6687 30.2909 43.065 31.1716 43.065 32.0929C43.065 35.0812 46.8121 35.4215 46.8121 37.7549C46.8121 38.464 46.7067 38.7861 46.3258 38.7861C46.097 38.7861 45.9404 38.7003 45.5972 38.7003C45.1245 38.7003 44.6999 39.1219 44.5373 40.138H48.4786C48.2693 39.1038 47.9652 36.5174 48.1971 35.6939C46.5381 35.2604 46.2626 32.9631 47.7244 31.2875C49.5219 33.0699 52.3732 32.2675 52.3732 29.6541C52.3732 26.6974 48.316 26.9156 48.316 25.3394L48.322 25.3379ZM49.8727 24.2073C50.1737 24.2073 50.4944 24.5626 51.0198 25.1061C50.4658 25.21 50.1602 24.665 49.4647 24.4889C49.5686 24.3413 49.692 24.2073 49.8711 24.2073H49.8727ZM49.1244 16.8954C49.1244 18.6673 48.0676 19.9514 46.3333 21.0429C46.2821 20.814 46.2084 20.5988 46.1211 20.397C47.7364 19.3327 49.2419 17.3139 48.1308 14.4249C48.8083 15.1867 49.1244 16.0387 49.1244 16.8954ZM43.339 14.312C43.5979 13.9477 43.9788 13.7053 44.3055 13.7053C44.5479 13.7053 44.87 13.8408 44.9573 14.2789C44.4139 14.2126 43.893 14.2352 43.339 14.312ZM45.1184 19.0165C46.3695 18.0425 47.199 16.7132 46.9084 15.2484C47.9938 16.8713 46.7443 18.4926 45.561 19.4697C45.4075 19.2785 45.2524 19.1279 45.1199 19.018" fill="#004E72"/>
		<path d="M20.5103 8.88785C20.983 8.88785 21.3669 8.50396 21.3669 8.03124L20.6006 5.9477H23.1223L22.356 8.03124C22.356 8.50396 22.7399 8.88785 23.2126 8.88785C23.6853 8.88785 24.0692 8.50396 24.0692 8.03124L23.3029 5.9477H23.5664C23.601 5.87845 23.5995 5.72489 23.5664 5.64661H20.158C20.1219 5.71586 20.1249 5.87092 20.158 5.9477H20.4215L19.6552 8.03124C19.6552 8.50396 20.0391 8.88785 20.5118 8.88785H20.5103ZM23.7952 8.03124H22.6435L23.2186 6.44751L23.7952 8.03124ZM20.5178 6.44751L21.0944 8.03124H19.9442L20.5178 6.44751Z" fill="#004E72"/>
		<path d="M59.092 1.10465H58.124V45.3213C58.124 45.3213 58.124 45.9431 58.7458 45.9431H59.7138V1.7249C59.7138 1.7249 59.7138 1.10315 59.092 1.10315" fill="#004E72"/>
		<path d="M76.5809 11.7362H72.6246V22.0937H70.6509V11.7362H66.6961V9.86792H76.5809V11.7362Z" fill="#004E72"/>
		<path d="M79.6851 14.723C80.2557 13.9131 81.1048 13.5096 82.2354 13.5096C83.232 13.5096 84.0464 13.8198 84.6802 14.44C85.3155 15.0587 85.6317 15.8581 85.6317 16.8367V22.0937H83.798V17.4389C83.798 16.7418 83.6279 16.2014 83.2877 15.819C82.946 15.4381 82.4672 15.2469 81.8515 15.2469C81.2358 15.2469 80.7194 15.4426 80.3054 15.8356C79.8914 16.2285 79.6851 16.7689 79.6851 17.4554V22.0922H77.8515V9.51868H79.6851V14.723Z" fill="#004E72"/>
		<path d="M91.369 15.134C90.7397 15.134 90.2369 15.3177 89.8575 15.688C89.4796 16.0584 89.2433 16.5597 89.1514 17.195H93.4901C93.3908 16.5431 93.1574 16.0373 92.7871 15.676C92.4183 15.3147 91.9455 15.1355 91.369 15.1355V15.134ZM91.4036 13.5111C92.5733 13.5111 93.5263 13.9176 94.2594 14.7291C94.9926 15.542 95.3599 16.5988 95.3599 17.9041C95.3599 18.172 95.3479 18.3978 95.3253 18.5845H89.1424C89.2523 19.2951 89.5368 19.828 89.9945 20.1833C90.4506 20.5371 90.9971 20.7147 91.6309 20.7147C92.5101 20.7147 93.3155 20.4212 94.0502 19.8325L94.958 21.1333C94.0381 21.9191 92.8925 22.312 91.518 22.312C90.2534 22.312 89.2252 21.9101 88.4318 21.1031C87.6354 20.2962 87.2395 19.2334 87.2395 17.9116C87.2395 16.5898 87.6264 15.5405 88.3972 14.7276C89.1695 13.9161 90.1721 13.5096 91.4051 13.5096" fill="#004E72"/>
		<path d="M110.431 22.0937H101.69V9.86792H103.664V20.2254H110.431V22.0937Z" fill="#004E72"/>
		<path d="M115.578 15.2289C114.815 15.2289 114.204 15.4878 113.744 16.0027C113.284 16.519 113.055 17.1543 113.055 17.9116C113.055 18.6688 113.284 19.3041 113.744 19.819C114.204 20.3339 114.815 20.5928 115.578 20.5928C116.341 20.5928 116.93 20.3399 117.398 19.8341C117.866 19.3267 118.101 18.6869 118.101 17.9131C118.101 17.1393 117.866 16.498 117.398 15.9906C116.929 15.4833 116.323 15.2304 115.578 15.2304V15.2289ZM119.813 22.0937H117.988V21.0896C117.347 21.9056 116.472 22.312 115.36 22.312C114.178 22.312 113.186 21.895 112.382 21.0625C111.578 20.23 111.178 19.1792 111.178 17.9116C111.178 16.644 111.58 15.5917 112.382 14.7577C113.186 13.9251 114.178 13.5096 115.36 13.5096C116.466 13.5096 117.343 13.9191 117.988 14.7396V13.7264H119.813V22.0922V22.0937Z" fill="#004E72"/>
		<path d="M133.097 13.7279L131.123 20.1201L129.035 13.7279H126.965L124.904 20.0839L122.941 13.7279H120.993L123.76 22.0937H125.91L127.979 15.7889L130.049 22.0937H132.231L135 13.7279H133.097Z" fill="#004E72"/>
		<path d="M76.0314 28.0989C74.9309 27.4004 73.7868 27.0511 72.6005 27.0511C71.7785 27.0511 71.1161 27.2167 70.6088 27.5479C70.1029 27.8791 69.85 28.3217 69.85 28.8757C69.85 29.3575 70.0578 29.7203 70.4748 29.9582C70.8903 30.1975 71.5301 30.3812 72.3912 30.5077L73.2373 30.6221C75.8628 30.9939 77.1756 32.1155 77.1756 33.9837C77.1756 34.7816 76.9497 35.4772 76.4951 36.0703C76.0404 36.665 75.4488 37.1076 74.7187 37.3981C73.987 37.6902 73.1741 37.8347 72.2783 37.8347C71.3826 37.8347 70.5169 37.6917 69.6152 37.4056C68.7134 37.1211 67.9607 36.7161 67.363 36.1922L68.4364 34.6205C68.8624 35.012 69.433 35.3326 70.1481 35.5855C70.8647 35.84 71.5723 35.9649 72.2708 35.9649C73.0913 35.9649 73.7732 35.8008 74.3137 35.4711C74.8556 35.1429 75.1251 34.7049 75.1251 34.1569C75.1251 33.6962 74.9008 33.3379 74.4492 33.082C73.9975 32.826 73.3065 32.6333 72.3762 32.5054L71.4247 32.3744C71.0408 32.3217 70.681 32.2464 70.3453 32.1471C70.0111 32.0477 69.6829 31.9077 69.3638 31.7286C69.0446 31.5479 68.7721 31.3372 68.5478 31.0948C68.3235 30.8524 68.1413 30.5528 68.0058 30.196C67.8673 29.8377 67.7996 29.4373 67.7996 28.9947C67.7996 28.2028 68.0179 27.5148 68.4545 26.9292C68.891 26.3451 69.4706 25.907 70.1918 25.6149C70.9144 25.3229 71.7228 25.1783 72.6201 25.1783C74.2324 25.1783 75.7047 25.6194 77.0386 26.4971L76.0344 28.0944L76.0314 28.0989Z" fill="#004E72"/>
		<path d="M84.8473 31.5043C84.346 31.003 83.7213 30.7531 82.97 30.7531C82.2188 30.7531 81.5956 31.0045 81.0973 31.5043C80.6005 32.0056 80.3505 32.6484 80.3505 33.4343C80.3505 34.2201 80.5989 34.8645 81.0973 35.3643C81.5956 35.8656 82.2203 36.114 82.97 36.114C83.7198 36.114 84.3475 35.8641 84.8473 35.3643C85.3486 34.863 85.5986 34.2201 85.5986 33.4343C85.5986 32.6484 85.3471 32.0056 84.8473 31.5043ZM80.6637 29.6089C81.3502 29.225 82.1195 29.0323 82.9685 29.0323C83.8176 29.0323 84.5869 29.2235 85.2734 29.6044C85.9614 29.9853 86.4988 30.5122 86.8902 31.1851C87.2801 31.8581 87.4743 32.6078 87.4743 33.4328C87.4743 34.2578 87.2801 35.0105 86.8902 35.6819C86.4988 36.3534 85.9614 36.8818 85.2734 37.2627C84.5869 37.6435 83.8176 37.8347 82.9685 37.8347C82.1195 37.8347 81.3502 37.642 80.6637 37.2581C79.9772 36.8743 79.4397 36.3473 79.0528 35.6774C78.6659 35.0075 78.4717 34.2593 78.4717 33.4328C78.4717 32.6063 78.6659 31.8581 79.0528 31.1897C79.4397 30.5212 79.9772 29.9928 80.6637 29.6089Z" fill="#004E72"/>
		<path d="M93.0084 29.0338C93.6422 29.0338 94.2308 29.1482 94.7728 29.374C95.3148 29.6014 95.7694 29.9326 96.1352 30.3707L94.9655 31.6202C94.3543 31.0436 93.6859 30.7561 92.9572 30.7561C92.2286 30.7561 91.658 31.006 91.1898 31.5058C90.7201 32.0071 90.4868 32.6499 90.4868 33.4358C90.4868 34.2216 90.7201 34.8659 91.1898 35.3657C91.658 35.8671 92.2466 36.1155 92.9572 36.1155C93.6678 36.1155 94.3859 35.8249 95.0091 35.2423L96.1352 36.5009C95.3614 37.3906 94.3181 37.8362 93.0099 37.8362C91.7017 37.8362 90.6388 37.4207 89.8274 36.5882C89.0144 35.7542 88.608 34.7049 88.608 33.4343C88.608 32.1637 89.0144 31.1144 89.8274 30.2833C90.6388 29.4508 91.7002 29.0338 93.0099 29.0338" fill="#004E72"/>
		<path d="M99.2967 37.6164H97.4631V29.2521H99.2967V37.6164ZM98.3723 25.0685C98.7336 25.0685 99.0393 25.1934 99.2892 25.4433C99.5406 25.6948 99.6655 26.0004 99.6655 26.3602C99.6655 26.72 99.5421 27.0316 99.2937 27.2725C99.0468 27.5133 98.7397 27.6338 98.3738 27.6338C98.008 27.6338 97.7024 27.5133 97.46 27.2725C97.2192 27.0301 97.0987 26.726 97.0987 26.3602C97.0987 25.9943 97.2192 25.6857 97.46 25.4388C97.7024 25.1919 98.0065 25.0685 98.3738 25.0685" fill="#004E72"/>
		<path d="M105.084 30.6567C104.454 30.6567 103.952 30.8419 103.572 31.2107C103.194 31.581 102.958 32.0824 102.866 32.7177H107.205C107.105 32.0658 106.872 31.5585 106.502 31.1971C106.133 30.8358 105.66 30.6552 105.084 30.6552V30.6567ZM105.118 29.0308C106.288 29.0308 107.241 29.4373 107.974 30.2487C108.707 31.0617 109.075 32.1185 109.075 33.4222C109.075 33.6902 109.063 33.9175 109.038 34.1042H102.857C102.967 34.8148 103.252 35.3477 103.709 35.703C104.165 36.0567 104.712 36.2344 105.346 36.2344C106.225 36.2344 107.03 35.9408 107.765 35.3522L108.673 36.6529C107.753 37.4388 106.607 37.8317 105.233 37.8317C103.968 37.8317 102.94 37.4297 102.145 36.6228C101.35 35.8159 100.953 34.753 100.953 33.4297C100.953 32.1064 101.34 31.0602 102.11 30.2472C102.883 29.4358 103.885 29.0293 105.118 29.0293" fill="#004E72"/>
		<path d="M116.474 30.9111H113.27V34.5528C113.27 35.0827 113.392 35.4756 113.636 35.7316C113.88 35.9875 114.201 36.1155 114.597 36.1155C115.12 36.1155 115.684 35.9258 116.283 35.5479L117.007 37.0052C116.185 37.5592 115.33 37.8347 114.439 37.8347C113.472 37.8347 112.73 37.5667 112.212 37.0308C111.694 36.4948 111.435 35.6789 111.435 34.5844V30.9081H109.766V29.2491H111.435V26.7169H113.269V29.2491H116.472V30.9081L116.474 30.9111Z" fill="#004E72"/>
		<path d="M119.997 41.1632H117.97L120.966 35.8971L117.254 29.2521H119.307L121.996 34.0545L124.59 29.2521H126.598L119.997 41.1632Z" fill="#004E72"/>
	</g>
	<defs>
		<clipPath id="clip0_993_4901">
			<rect width="135" height="45.8862" fill="white" transform="translate(0 0.0568848)"/>
		</clipPath>
	</defs>
</svg>
